<?xml version="1.0" encoding="UTF-8"?>
<svg version="1.1" xmlns="http://www.w3.org/2000/svg" width="157" height="124">
<path d="M0 0 C8.65395047 3.36909522 21.13222237 3.15818977 29.88427734 0.26513672 C34.05812923 -1.58397943 37.91564635 -3.80839837 41.78125 -6.2265625 C51.3077222 -12.10837105 59.14351449 -13.40322346 70.3203125 -13.1796875 C71.56039062 -13.17839844 72.80046875 -13.17710938 74.078125 -13.17578125 C85.2919642 -13.06726023 85.2919642 -13.06726023 90.0703125 -10.8046875 C93.25111173 -5.4978203 92.41023079 0.95871349 92.3828125 6.9453125 C92.37934814 8.15292236 92.37588379 9.36053223 92.37231445 10.60473633 C92.22193814 23.04941451 91.8804093 38.23746625 84.2421875 48.69921875 C80.58368788 51.21937227 77.35592572 50.25420306 73.12109375 49.7578125 C69.15502066 49.0265519 65.78529313 47.74884985 62.0703125 46.1953125 C61.0803125 46.1953125 60.0903125 46.1953125 59.0703125 46.1953125 C59.50891602 46.84798096 59.94751953 47.50064941 60.39941406 48.1730957 C64.87943087 54.99998923 68.50283569 61.93030406 71.8203125 69.3828125 C72.28824219 70.41083984 72.75617188 71.43886719 73.23828125 72.49804688 C81.04917425 89.79043463 81.04917425 89.79043463 80.0703125 94.1953125 C76.73318015 97.22193535 73.39938627 99.15591951 69.2890625 100.95703125 C68.19980469 101.43591797 67.11054688 101.91480469 65.98828125 102.40820312 C64.86035156 102.89482422 63.73242188 103.38144531 62.5703125 103.8828125 C61.44238281 104.38103516 60.31445312 104.87925781 59.15234375 105.39257812 C48.7345462 109.93572416 48.7345462 109.93572416 45.0703125 110.1953125 C42.32403389 108.27966329 41.00999886 105.52948392 39.46875 102.609375 C38.98277344 101.68906494 38.49679688 100.76875488 37.99609375 99.82055664 C37.48433594 98.83047607 36.97257812 97.84039551 36.4453125 96.8203125 C35.91550781 95.79607178 35.38570313 94.77183105 34.83984375 93.71655273 C25.24919826 74.94113094 18.43075558 57.06543266 15.0703125 36.1953125 C14.7403125 36.1953125 14.4103125 36.1953125 14.0703125 36.1953125 C13.96074219 36.81760742 13.85117188 37.43990234 13.73828125 38.08105469 C9.98422457 58.87334014 3.06341875 76.46518554 -6.2421875 95.3203125 C-6.55050507 95.94820679 -6.85882263 96.57610107 -7.17648315 97.22302246 C-8.05984143 99.01284525 -8.95738485 100.79564561 -9.85546875 102.578125 C-10.37536377 103.61340332 -10.89525879 104.64868164 -11.4309082 105.71533203 C-12.9296875 108.1953125 -12.9296875 108.1953125 -15.9296875 110.1953125 C-19.9567725 109.82677656 -23.31929427 108.25894438 -26.96484375 106.578125 C-28.10373047 106.05347656 -29.24261719 105.52882813 -30.41601562 104.98828125 C-31.59615234 104.43785156 -32.77628906 103.88742188 -33.9921875 103.3203125 C-35.17619141 102.77761719 -36.36019531 102.23492187 -37.58007812 101.67578125 C-47.18801782 97.22292308 -47.18801782 97.22292308 -50.9296875 94.1953125 C-49.07830441 77.49030413 -38.82456266 60.21147941 -29.9296875 46.1953125 C-31.0640625 46.49566406 -32.1984375 46.79601563 -33.3671875 47.10546875 C-34.88783366 47.49032364 -36.40867787 47.8743966 -37.9296875 48.2578125 C-38.67347656 48.45697266 -39.41726562 48.65613281 -40.18359375 48.86132812 C-45.47055397 50.17157479 -49.5870949 50.41880699 -54.9296875 49.1953125 C-59.57565844 42.7914066 -60.57172087 34.86739146 -61.9296875 27.1953125 C-62.11789063 26.16792969 -62.30609375 25.14054687 -62.5 24.08203125 C-63.12700603 18.4104767 -63.11401634 12.77205757 -63.1171875 7.0703125 C-63.12943359 5.90371094 -63.14167969 4.73710937 -63.15429688 3.53515625 C-63.15623047 2.40980469 -63.15816406 1.28445312 -63.16015625 0.125 C-63.16426514 -0.89352051 -63.16837402 -1.91204102 -63.17260742 -2.96142578 C-62.90551344 -6.08763331 -62.55676219 -8.10875933 -60.9296875 -10.8046875 C-40.59021542 -20.26916008 -17.43380052 -10.73922112 0 0 Z " fill="#E9A1B8" transform="translate(63.9296875,12.8046875)"/>
<path d="M0 0 C2.86697492 1.28519565 4.97607712 2.57129254 7 5 C7 5.66 7 6.32 7 7 C7.99 7.33 8.98 7.66 10 8 C10 8.66 10 9.32 10 10 C12.97 10.495 12.97 10.495 16 11 C16.33 12.32 16.66 13.64 17 15 C18.65 15 20.3 15 22 15 C22.66 16.32 23.32 17.64 24 19 C26.51083114 17.74458443 26.87125446 16.49936512 28 14 C33.00648656 21.44995363 37.10226838 28.99309434 40.75 37.1875 C41.21792969 38.21552734 41.68585938 39.24355469 42.16796875 40.30273438 C49.97886175 57.59512213 49.97886175 57.59512213 49 62 C45.66286765 65.02662285 42.32907377 66.96060701 38.21875 68.76171875 C37.12949219 69.24060547 36.04023438 69.71949219 34.91796875 70.21289062 C33.79003906 70.69951172 32.66210938 71.18613281 31.5 71.6875 C30.37207031 72.18572266 29.24414062 72.68394531 28.08203125 73.19726562 C17.6642337 77.74041166 17.6642337 77.74041166 14 78 C11.25372139 76.08435079 9.93968636 73.33417142 8.3984375 70.4140625 C7.91246094 69.49375244 7.42648438 68.57344238 6.92578125 67.62524414 C6.41402344 66.63516357 5.90226562 65.64508301 5.375 64.625 C4.58029297 63.08863892 4.58029297 63.08863892 3.76953125 61.52124023 C-14 26.73417145 -14 26.73417145 -14 11 C-13.01 11 -12.02 11 -11 11 C-10.67 9.68 -10.34 8.36 -10 7 C-9.01 7 -8.02 7 -7 7 C-6.67 8.32 -6.34 9.64 -6 11 C-5.34 11 -4.68 11 -4 11 C-4 11.99 -4 12.98 -4 14 C-2.9171875 13.8453125 -2.9171875 13.8453125 -1.8125 13.6875 C2.12041589 14.12449065 3.46321923 16.10082197 6 19 C5.855625 18.24074219 5.71125 17.48148438 5.5625 16.69921875 C5.376875 15.70535156 5.19125 14.71148437 5 13.6875 C4.814375 12.70136719 4.62875 11.71523438 4.4375 10.69921875 C4 8 4 8 4 5 C3.01 4.67 2.02 4.34 1 4 C0.3125 1.9375 0.3125 1.9375 0 0 Z " fill="#F2A8C0" transform="translate(95,45)"/>
<path d="M0 0 C0.66 0 1.32 0 2 0 C2.495 2.97 2.495 2.97 3 6 C3.33 6 3.66 6 4 6 C3.47635811 25.80318408 -7.28655236 44.64572607 -15.8125 62 C-16.28059082 62.96244629 -16.74868164 63.92489258 -17.23095703 64.91650391 C-17.67681152 65.81030762 -18.12266602 66.70411133 -18.58203125 67.625 C-18.97624268 68.42164062 -19.3704541 69.21828125 -19.77661133 70.0390625 C-21 72 -21 72 -24 74 C-28.027085 73.63146406 -31.38960677 72.06363188 -35.03515625 70.3828125 C-36.17404297 69.85816406 -37.31292969 69.33351563 -38.48632812 68.79296875 C-39.66646484 68.24253906 -40.84660156 67.69210938 -42.0625 67.125 C-43.83850586 66.31095703 -43.83850586 66.31095703 -45.65039062 65.48046875 C-55.25833032 61.02761058 -55.25833032 61.02761058 -59 58 C-57.3542939 43.15081278 -48.79583215 27.59883709 -41 15 C-40.67 15.66 -40.34 16.32 -40 17 C-40.33 17.66 -40.66 18.32 -41 19 C-39.02463255 18.65213292 -39.02463255 18.65213292 -37 18 C-36.67 17.34 -36.34 16.68 -36 16 C-34.33499557 15.65846063 -32.66821323 15.32550502 -31 15 C-30.34 14.34 -29.68 13.68 -29 13 C-27.68 13 -26.36 13 -25 13 C-24.773125 12.236875 -24.54625 11.47375 -24.3125 10.6875 C-22.72014048 7.42695432 -21.27263601 6.4726862 -18 5 C-16 6 -16 6 -15 8 C-15.33984375 9.9453125 -15.33984375 9.9453125 -15.9375 12.125 C-16.13214844 12.84945312 -16.32679687 13.57390625 -16.52734375 14.3203125 C-16.76130859 15.15175781 -16.76130859 15.15175781 -17 16 C-15.948125 14.88625 -15.948125 14.88625 -14.875 13.75 C-7.81818182 7 -7.81818182 7 -4 7 C-3.67 5.68 -3.34 4.36 -3 3 C-2.34 3 -1.68 3 -1 3 C-0.67 2.01 -0.34 1.02 0 0 Z " fill="#F1A7BF" transform="translate(72,49)"/>
<path d="M0 0 C0.85078125 0.26683594 0.85078125 0.26683594 1.71875 0.5390625 C4.24773705 1.05005646 5.96702962 0.80560496 8.5 0.375 C14.73000994 -0.37705783 20.05756776 1.26719851 26 3 C26.33 3 26.66 3 27 3 C27.66 3.33 28.32 3.66 29 4 C28.34 7.96 27.68 11.92 27 16 C25.02 16 23.04 16 21 16 C24.20898892 20.2175283 26.01166432 22.14387509 31 24 C33.00054322 25.38938826 34.91272156 26.87507702 36.84375 28.359375 C42.46970184 32.63999053 48.03705248 36.05061468 54.5 38.9375 C59.70982796 41.43001922 59.70982796 41.43001922 60.984375 43.93359375 C61.25 45.875 61.25 45.875 61 49 C59.515 49.495 59.515 49.495 58 50 C57.34 49.01 56.68 48.02 56 47 C53.43717258 46.27034634 53.43717258 46.27034634 51 46 C50.505 44.02 50.505 44.02 50 42 C49.154375 42 48.30875 42 47.4375 42 C42.98618657 40.70507246 41.42374444 38.4700763 38.61328125 34.91015625 C36.95898375 32.77205649 36.95898375 32.77205649 34 31 C35.3089572 34.12197478 35.3089572 34.12197478 38 36 C38.6328125 38.14453125 38.6328125 38.14453125 39.125 40.8125 C39.29257813 41.68519531 39.46015625 42.55789062 39.6328125 43.45703125 C40 46 40 46 40 50 C36.125 48.25 36.125 48.25 35 46 C32.47266765 45.34444881 32.47266765 45.34444881 30 45 C30 44.01 30 43.02 30 42 C29.34 42 28.68 42 28 42 C26.375 40 26.375 40 25 38 C24.34 39.32 23.68 40.64 23 42 C22.01 42 21.02 42 20 42 C19.34 39.69 18.68 37.38 18 35 C17.67 35 17.34 35 17 35 C16.01 38.3 15.02 41.6 14 45 C13.67 45 13.34 45 13 45 C13 41.7 13 38.4 13 35 C9.08396696 37.79420492 9.08396696 37.79420492 7 42 C5.00390625 43.5 5.00390625 43.5 2.5625 45 C-0.53633749 46.91003788 -1.93774972 47.90662458 -4 51 C-4.66 51 -5.32 51 -6 51 C-5.67447917 48.98177083 -5.34895833 46.96354167 -5.0234375 44.9453125 C-5.01570313 44.30335937 -5.00796875 43.66140625 -5 43 C-5.66 42.34 -6.32 41.68 -7 41 C-9.87791583 42.09162325 -10.87182086 42.77707976 -12.4375 45.5 C-14.33931556 48.5429049 -15.64371023 48.93581056 -19 50 C-19.721875 50.391875 -20.44375 50.78375 -21.1875 51.1875 C-21.785625 51.455625 -22.38375 51.72375 -23 52 C-23.66 51.67 -24.32 51.34 -25 51 C-25.33 51.99 -25.66 52.98 -26 54 C-27.32 54 -28.64 54 -30 54 C-28.90723236 48.62722578 -28.04158721 44.93235513 -24 41 C-20.51261835 38.76281177 -17.25381685 37.10687025 -13.4375 35.5 C-9.66152717 33.85230277 -5.94622155 31.94622155 -3 29 C-2.95919217 27.00041636 -2.95745644 24.99954746 -3 23 C-3.66 22.67 -4.32 22.34 -5 22 C-4.401875 21.443125 -3.80375 20.88625 -3.1875 20.3125 C-1.00917587 18.00970021 0.41890515 15.73180572 2 13 C-10.40100811 15.36901401 -10.40100811 15.36901401 -20 23 C-21.46425533 25.68479876 -21.46425533 25.68479876 -22 28 C-24.5654594 25.4345406 -24.54046087 23.52313332 -25 20 C-24.34 20 -23.68 20 -23 20 C-23 19.01 -23 18.02 -23 17 C-22.34 17 -21.68 17 -21 17 C-20.6596875 16.071875 -20.6596875 16.071875 -20.3125 15.125 C-18.62070165 12.38589791 -17.00755839 11.94975528 -14 11 C-14 9.68 -14 8.36 -14 7 C-8.21101581 6.79325056 -3.57067277 7.40837921 2 9 C2 7.02 2 5.04 2 3 C1.34 3 0.68 3 0 3 C0 2.01 0 1.02 0 0 Z " fill="#E9A0B9" transform="translate(61,14)"/>
<path d="M0 0 C3.04190863 -0.05421223 6.08283999 -0.09377548 9.125 -0.125 C9.9809375 -0.14175781 10.836875 -0.15851562 11.71875 -0.17578125 C16.46411984 -0.21228409 20.6934133 -0.24049838 25 2 C27.89886495 7.65343968 27.34091334 13.54613869 27.3125 19.75 C27.30730347 21.56141479 27.30730347 21.56141479 27.30200195 23.40942383 C27.15136173 35.87594297 26.79009092 51.00593899 19.18359375 61.5078125 C16.24269262 63.51751596 14.56434661 63.29009909 11.0625 62.875 C10.04285156 62.76929688 9.02320313 62.66359375 7.97265625 62.5546875 C5.09298999 62.01735161 2.66885207 61.18943315 0 60 C0 59.01 0 58.02 0 57 C0.94875 56.566875 1.8975 56.13375 2.875 55.6875 C6.20041937 54.20697799 6.20041937 54.20697799 8 51 C8.66 51 9.32 51 10 51 C9.89386164 48.54775306 9.89386164 48.54775306 9 46 C8.19304687 45.73316406 7.38609375 45.46632812 6.5546875 45.19140625 C4 44 4 44 2.92578125 41.42578125 C2.72339844 40.39839844 2.52101562 39.37101562 2.3125 38.3125 C2.085625 37.24128906 1.85875 36.17007813 1.625 35.06640625 C1.41875 34.05449219 1.2125 33.04257812 1 32 C0.62158571 30.57858131 0.22958441 29.1605563 -0.1875 27.75 C-0.455625 26.8425 -0.72375 25.935 -1 25 C-2.36125 25.4640625 -2.36125 25.4640625 -3.75 25.9375 C-6.16563338 26.7272263 -8.52780285 27.42949297 -11 28 C-10.505 29.03125 -10.01 30.0625 -9.5 31.125 C-8.03222026 34.53828025 -7.65168209 37.25558244 -8 41 C-8.33 41.66 -8.66 42.32 -9 43 C-9.66 43 -10.32 43 -11 43 C-11.185625 42.13375 -11.37125 41.2675 -11.5625 40.375 C-13.86785233 34.96243367 -17.39966739 32.17182371 -22.73046875 29.76953125 C-27.1129983 28.13125772 -31.3942155 26.83968273 -36 26 C-36 25.34 -36 24.68 -36 24 C-35.23816406 23.75765625 -34.47632812 23.5153125 -33.69140625 23.265625 C-28.85748487 21.69656188 -24.2696533 20.20669867 -19.8125 17.75 C-15.36428904 15.67744499 -11.0770938 15.60131696 -6.25 15.5625 C-5.14942261 15.54751465 -5.14942261 15.54751465 -4.02661133 15.53222656 C0.46735471 15.60413824 3.43666259 16.21869274 7 19 C7.495 19.99 7.495 19.99 8 21 C9.32 20.67 10.64 20.34 12 20 C11.74481529 17.72735496 11.47030939 15.45687295 11.1875 13.1875 C11.03667969 11.92292969 10.88585937 10.65835937 10.73046875 9.35546875 C10.00840546 6.03861118 9.74883969 4.86713639 7 3 C4.69011685 2.25613932 2.35684056 1.57809297 0 1 C0 0.67 0 0.34 0 0 Z " fill="#EA9DB7" transform="translate(129,0)"/>
<path d="M0 0 C2.86697492 1.28519565 4.97607712 2.57129254 7 5 C7 5.66 7 6.32 7 7 C7.99 7.33 8.98 7.66 10 8 C9.01 8.495 9.01 8.495 8 9 C7.34 8.67 6.68 8.34 6 8 C6.39832031 8.67804687 6.79664062 9.35609375 7.20703125 10.0546875 C12.84122821 19.95223059 16.67566356 29.38535162 15 41 C13.38104975 44.11370705 11.721203 46.7520497 9 49 C8.34 49 7.68 49 7 49 C7 49.66 7 50.32 7 51 C5.37373596 52.38232443 3.7074998 53.71937515 2 55 C-1.90307482 51.48995039 -3.41882095 47.06467593 -5.4375 42.3125 C-5.83638428 41.37801025 -6.23526855 40.44352051 -6.64624023 39.48071289 C-10.38747855 30.47579104 -14 20.85606643 -14 11 C-13.01 11 -12.02 11 -11 11 C-10.67 9.68 -10.34 8.36 -10 7 C-9.01 7 -8.02 7 -7 7 C-6.67 8.32 -6.34 9.64 -6 11 C-5.34 11 -4.68 11 -4 11 C-4 11.99 -4 12.98 -4 14 C-2.9171875 13.8453125 -2.9171875 13.8453125 -1.8125 13.6875 C2.12041589 14.12449065 3.46321923 16.10082197 6 19 C5.855625 18.24074219 5.71125 17.48148438 5.5625 16.69921875 C5.376875 15.70535156 5.19125 14.71148437 5 13.6875 C4.814375 12.70136719 4.62875 11.71523438 4.4375 10.69921875 C4 8 4 8 4 5 C3.01 4.67 2.02 4.34 1 4 C0.3125 1.9375 0.3125 1.9375 0 0 Z " fill="#F096B0" transform="translate(95,45)"/>
<path d="M0 0 C3.62634017 1.00731671 4.82219397 1.73042311 6.9375 4.9375 C9.31348347 8.46547546 11.09319416 9.45355602 15 11 C15.7425 11.144375 16.485 11.28875 17.25 11.4375 C19 12 19 12 20.07910156 13.74291992 C21.72409848 17.77473236 21.57717829 22.00321251 21.75 26.3125 C21.8113916 27.7807019 21.8113916 27.7807019 21.87402344 29.27856445 C22.52364291 49.70976663 22.52364291 49.70976663 18.546875 54.89453125 C17 56 17 56 15 56 C15 56.66 15 57.32 15 58 C12.11788698 58.96070434 10.30149956 59.10581883 7.3125 59.0625 C6.10013672 59.04896484 6.10013672 59.04896484 4.86328125 59.03515625 C4.24839844 59.02355469 3.63351563 59.01195312 3 59 C2.67 59.99 2.34 60.98 2 62 C0.80274117 59.71296692 -0.38297018 57.42115138 -1.5625 55.125 C-1.90474609 54.47402344 -2.24699219 53.82304688 -2.59960938 53.15234375 C-3.46082891 51.46470143 -4.23686703 49.73420407 -5 48 C-3.91926148 45.83852297 -2.80636736 44.58960328 -1 43 C-0.34 43 0.32 43 1 43 C1 42.34 1 41.68 1 41 C1.66 41 2.32 41 3 41 C3.33 40.01 3.66 39.02 4 38 C4.99 37.34 5.98 36.68 7 36 C9.71439904 27.85680287 8.24903697 18.77992057 5 11 C3.73863598 8.5485991 2.41583738 6.17070482 0.98828125 3.8125 C0 2 0 2 0 0 Z " fill="#F5BED4" transform="translate(101,53)"/>
<path d="M0 0 C0.66 0 1.32 0 2 0 C2.33 1.98 2.66 3.96 3 6 C3.33 6 3.66 6 4 6 C3.64944479 19.25736075 -1.67411331 32.03375247 -7 44 C-7.66 44 -8.32 44 -9 44 C-9.33 44.99 -9.66 45.98 -10 47 C-12.625 47.9375 -12.625 47.9375 -16 48 C-19.48174329 45.09854726 -23.5770031 40.36791046 -24.37890625 35.87890625 C-24.46978516 34.73228516 -24.46978516 34.73228516 -24.5625 33.5625 C-24.75376878 31.25556425 -24.94336868 29.19122263 -25.6015625 26.96875 C-26.3326863 23.35613828 -24.67348761 20.17081863 -23 17 C-20.875 15.1875 -20.875 15.1875 -19 14 C-18.67 13.01 -18.34 12.02 -18 11 C-17.34 11.33 -16.68 11.66 -16 12 C-16.33 13.32 -16.66 14.64 -17 16 C-15.948125 14.88625 -15.948125 14.88625 -14.875 13.75 C-7.81818182 7 -7.81818182 7 -4 7 C-3.67 5.68 -3.34 4.36 -3 3 C-2.34 3 -1.68 3 -1 3 C-0.67 2.01 -0.34 1.02 0 0 Z " fill="#EE97B4" transform="translate(72,49)"/>
<path d="M0 0 C-1.31224548 3.93673644 -2.91910327 6.22719294 -6 9 C-5.34 11.31 -4.68 13.62 -4 16 C-9.0643866 21.67211299 -16.90058722 25.92643942 -24.375 27.5 C-25.179375 27.7475 -25.179375 27.7475 -26 28 C-26.33 28.99 -26.66 29.98 -27 31 C-30.3 31.66 -33.6 32.32 -37 33 C-36.67 32.34 -36.34 31.68 -36 31 C-36.8971875 30.9071875 -36.8971875 30.9071875 -37.8125 30.8125 C-40.86915486 29.67717105 -41.46634026 27.78847225 -43 25 C-43.66 24.67 -44.32 24.34 -45 24 C-45.6875 21 -45.6875 21 -46 18 C-45 17 -45 17 -41.9375 16.9375 C-40.4834375 16.9684375 -40.4834375 16.9684375 -39 17 C-39 15.68 -39 14.36 -39 13 C-38.01 13 -37.02 13 -36 13 C-36 10.36 -36 7.72 -36 5 C-34.35 4.67 -32.7 4.34 -31 4 C-30.67 5.65 -30.34 7.3 -30 9 C-29.0409375 9.1546875 -29.0409375 9.1546875 -28.0625 9.3125 C-27.381875 9.539375 -26.70125 9.76625 -26 10 C-25.67 10.99 -25.34 11.98 -25 13 C-24.56429687 12.45730469 -24.12859375 11.91460937 -23.6796875 11.35546875 C-17.32354636 3.71984466 -10.13195191 0 0 0 Z " fill="#E99BB4" transform="translate(63,27)"/>
<path d="M0 0 C0.66 0.33 1.32 0.66 2 1 C1.67 1.99 1.34 2.98 1 4 C0.34 4 -0.32 4 -1 4 C-1.0825 4.61875 -1.165 5.2375 -1.25 5.875 C-1.4975 6.57625 -1.745 7.2775 -2 8 C-2.66 8.268125 -3.32 8.53625 -4 8.8125 C-4.66 9.204375 -5.32 9.59625 -6 10 C-6.75333604 13.43992779 -6.75333604 13.43992779 -7 17 C-7.33 17.99 -7.66 18.98 -8 20 C-7.67 20.66 -7.34 21.32 -7 22 C-6.92301833 23.37426528 -6.86282315 24.74950052 -6.8125 26.125 C-6.27368253 31.5926724 -3.75469491 35.10520453 0 39 C0.99 39.66 1.98 40.32 3 41 C2.30058404 44.14737182 1.23921302 47.02588876 0 50 C-0.66 50 -1.32 50 -2 50 C-2.12375 50.61875 -2.2475 51.2375 -2.375 51.875 C-3 54 -3 54 -5 56 C-7.0234375 56.08203125 -7.0234375 56.08203125 -9.375 55.8125 C-10.14585938 55.73644531 -10.91671875 55.66039062 -11.7109375 55.58203125 C-14.48766763 54.8760026 -15.93667791 53.98805068 -18 52 C-21.38558641 44.95090591 -21.30331254 36.79157531 -21.375 29.125 C-21.38885742 28.22152832 -21.40271484 27.31805664 -21.41699219 26.38720703 C-21.38057025 21.22583578 -21.01182642 17.39754938 -18 13 C-15 12 -15 12 -11 12 C-10.95875 11.443125 -10.9175 10.88625 -10.875 10.3125 C-9.57050181 6.86489763 -6.86174155 5.14095378 -4 3 C-3.21625 2.401875 -2.4325 1.80375 -1.625 1.1875 C-1.08875 0.795625 -0.5525 0.40375 0 0 Z " fill="#F6BDD5" transform="translate(55,56)"/>
<path d="M0 0 C1.79240663 0.11389875 3.58394835 0.24147687 5.375 0.375 C6.87160156 0.47941406 6.87160156 0.47941406 8.3984375 0.5859375 C11 1 11 1 13 3 C18.31861165 18.36417121 14.93287395 44.39137305 8 59 C6.203125 61.515625 6.203125 61.515625 4 63 C0.984375 63.171875 0.984375 63.171875 -2.25 62.75 C-3.32765625 62.62109375 -4.4053125 62.4921875 -5.515625 62.359375 C-6.33546875 62.24078125 -7.1553125 62.1221875 -8 62 C-8 61.67 -8 61.34 -8 61 C-7.030625 60.71125 -6.06125 60.4225 -5.0625 60.125 C-1.89335797 59.35785318 -1.89335797 59.35785318 -1 57 C-0.34 57 0.32 57 1 57 C1.64881448 54.45906145 2.29412899 51.91731727 2.9375 49.375 C3.11990234 48.66214844 3.30230469 47.94929688 3.49023438 47.21484375 C5.30846514 40.00803818 6.16648736 33.30494199 6.125 25.875 C6.12306641 25.04057373 6.12113281 24.20614746 6.11914062 23.34643555 C6.07409835 16.86347614 5.72045946 10.44553912 5 4 C4.34 4 3.68 4 3 4 C3 3.34 3 2.68 3 2 C2.01 1.34 1.02 0.68 0 0 Z " fill="#E499B2" transform="translate(142,0)"/>
<path d="M0 0 C0.66796875 2.109375 0.66796875 2.109375 1.1875 4.75 C1.36667969 5.61109375 1.54585937 6.4721875 1.73046875 7.359375 C2.01547015 10.15156261 1.68655974 12.29271479 1 15 C-3.8 12.53846154 -3.8 12.53846154 -4.8125 9.8125 C-4.874375 9.214375 -4.93625 8.61625 -5 8 C-5.9075 8.309375 -6.815 8.61875 -7.75 8.9375 C-10.16563338 9.7272263 -12.52780285 10.42949297 -15 11 C-14.505 12.03125 -14.01 13.0625 -13.5 14.125 C-12.03222026 17.53828025 -11.65168209 20.25558244 -12 24 C-12.33 24.66 -12.66 25.32 -13 26 C-13.66 26 -14.32 26 -15 26 C-15.185625 25.13375 -15.37125 24.2675 -15.5625 23.375 C-17.86785233 17.96243367 -21.39966739 15.17182371 -26.73046875 12.76953125 C-31.1129983 11.13125772 -35.3942155 9.83968273 -40 9 C-40 8.34 -40 7.68 -40 7 C-39.23816406 6.75765625 -38.47632812 6.5153125 -37.69140625 6.265625 C-32.85748487 4.69656188 -28.2696533 3.20669867 -23.8125 0.75 C-17.81993611 -2.07982184 -5.98696347 -2.99348174 0 0 Z " fill="#E58EA7" transform="translate(133,17)"/>
<path d="M0 0 C0.84600276 2.0364495 1.6762825 4.07943487 2.5 6.125 C2.9640625 7.26195312 3.428125 8.39890625 3.90625 9.5703125 C4.98315041 12.9471645 5.21360807 15.48614728 5 19 C5.804375 19.144375 6.60875 19.28875 7.4375 19.4375 C10 20 10 20 11 21 C11.04063832 22.66617115 11.042721 24.33388095 11 26 C10.34 26 9.68 26 9 26 C8.731875 26.61875 8.46375 27.2375 8.1875 27.875 C7 30 7 30 4 32 C3.01 32 2.02 32 1 32 C1 32.66 1 33.32 1 34 C-2.36016893 32.87994369 -3.69064913 31.62788203 -6 29 C-6 28.34 -6 27.68 -6 27 C-6.66 27 -7.32 27 -8 27 C-7.75636719 26.22849609 -7.75636719 26.22849609 -7.5078125 25.44140625 C-6.84215538 22.24113161 -6.86812927 19.20453307 -6.875 15.9375 C-6.87242188 14.70902344 -6.86984375 13.48054688 -6.8671875 12.21484375 C-6.85217325 8.98214792 -6.85217325 8.98214792 -8 6 C-8.66 6 -9.32 6 -10 6 C-10 5.01 -10 4.02 -10 3 C-6.54518829 0.33485954 -4.27470461 -0.15087193 0 0 Z " fill="#F3C5D6" transform="translate(128,25)"/>
<path d="M0 0 C2.31 0 4.62 0 7 0 C7 0.33 7 0.66 7 1 C5.02 1.33 3.04 1.66 1 2 C0.67 1.34 0.34 0.68 0 0 Z M6 3 C6 3.66 6 4.32 6 5 C7.32 5.33 8.64 5.66 10 6 C10 6.66 10 7.32 10 8 C12.475 8.495 12.475 8.495 15 9 C15.93423645 12.01031744 16.04449911 12.86650268 15 16 C15.66 16.33 16.32 16.66 17 17 C16.35450195 16.99476318 15.70900391 16.98952637 15.04394531 16.98413086 C12.11264015 16.96331343 9.18135057 16.95032466 6.25 16.9375 C5.23421875 16.92912109 4.2184375 16.92074219 3.171875 16.91210938 C2.1921875 16.90888672 1.2125 16.90566406 0.203125 16.90234375 C-0.69760742 16.89710693 -1.59833984 16.89187012 -2.52636719 16.88647461 C-4.86381216 16.99374977 -6.79693002 17.21517954 -9 18 C-9.33 18.66 -9.66 19.32 -10 20 C-10.66 19.67 -11.32 19.34 -12 19 C-12 17.68 -12 16.36 -12 15 C-12.99 15 -13.98 15 -15 15 C-14.67 15.99 -14.34 16.98 -14 18 C-14.99 18 -15.98 18 -17 18 C-16.33572067 12.89397233 -15.8258792 9.0376431 -12.5625 4.9375 C-7.08898997 0.79899242 -0.39504589 1.40123853 6 3 Z " fill="#F3C5D5" transform="translate(31,0)"/>
<path d="M0 0 C0.66 0 1.32 0 2 0 C2.33 1.98 2.66 3.96 3 6 C3.33 6 3.66 6 4 6 C3.88512252 7.58409994 3.75765492 9.16728963 3.625 10.75 C3.55539063 11.63171875 3.48578125 12.5134375 3.4140625 13.421875 C3.00149945 15.99066382 2.28839043 17.75841015 1 20 C1 19.01 1 18.02 1 17 C0.34 17 -0.32 17 -1 17 C-1.04125 17.825 -1.0825 18.65 -1.125 19.5 C-2.30444304 24.21777217 -4.43572736 27.67444308 -8 31 C-11.25 31.625 -11.25 31.625 -14 31 C-16.36281649 28.63718351 -16.29567658 28.09388178 -16.3125 24.875 C-16.15393755 19.39578648 -15.42342823 14.31123248 -11.3125 10.390625 C-6.74087079 7 -6.74087079 7 -4 7 C-3.67 5.68 -3.34 4.36 -3 3 C-2.34 3 -1.68 3 -1 3 C-0.67 2.01 -0.34 1.02 0 0 Z " fill="#F7B7D0" transform="translate(72,49)"/>
<path d="M0 0 C2.475 0.495 2.475 0.495 5 1 C5.33 2.32 5.66 3.64 6 5 C7.65 5 9.3 5 11 5 C11.66 6.32 12.32 7.64 13 9 C15.51083114 7.74458443 15.87125446 6.49936512 17 4 C18.12743666 5.74843118 19.2518542 7.4988094 20.375 9.25 C21.00148438 10.22453125 21.62796875 11.1990625 22.2734375 12.203125 C26.51382955 19.07217638 27.14088907 24.71701697 27.125 32.8125 C27.13080078 33.8324707 27.13080078 33.8324707 27.13671875 34.87304688 C27.12674825 39.87325175 27.12674825 39.87325175 26 41 C24.33382885 41.04063832 22.66611905 41.042721 21 41 C21 41.99 21 42.98 21 44 C19.02 44.495 19.02 44.495 17 45 C17.14188985 42.45805839 17.28839155 39.91652007 17.4375 37.375 C17.47681641 36.66214844 17.51613281 35.94929688 17.55664062 35.21484375 C17.74905442 31.98821244 17.99882353 29.00541445 18.6875 25.8359375 C19.08310124 22.24585625 18.18912197 20.44152929 16.5625 17.25 C14 12.13896458 14 12.13896458 14 10 C13.1028125 10.3403125 13.1028125 10.3403125 12.1875 10.6875 C11.465625 10.790625 10.74375 10.89375 10 11 C8.5625 9.75 8.5625 9.75 7 8 C5.7315625 7.319375 5.7315625 7.319375 4.4375 6.625 C1.55761861 4.70507907 0.96950297 3.26105543 0 0 Z " fill="#F19BB5" transform="translate(106,55)"/>
<path d="M0 0 C1.5 1.375 1.5 1.375 3 3 C3 3.66 3 4.32 3 5 C3.66 5 4.32 5 5 5 C5 5.99 5 6.98 5 8 C6.1446875 7.87625 6.1446875 7.87625 7.3125 7.75 C10 8 10 8 11.75 9.6875 C14.00979339 13.86811776 14.13766267 18.06481069 14.125 22.75 C14.12886719 24.19632813 14.12886719 24.19632813 14.1328125 25.671875 C14 28 14 28 13 29 C10.25 29.4375 10.25 29.4375 7 29 C2.57000318 24.87907273 0.86500411 20.69317045 -1 15 C0.75747614 19.50353262 1.19294408 23.17639811 1 28 C-1.33223736 24.50164396 -2.15245549 21.08595267 -3.125 17.0625 C-3.30675781 16.34642578 -3.48851563 15.63035156 -3.67578125 14.89257812 C-4.52085109 11.46464446 -5 8.55227969 -5 5 C-4.01 5 -3.02 5 -2 5 C-1.7834375 4.0409375 -1.7834375 4.0409375 -1.5625 3.0625 C-1 1 -1 1 0 0 Z " fill="#F8B8D1" transform="translate(86,51)"/>
<path d="M0 0 C0 1.32 0 2.64 0 4 C0.66 4 1.32 4 2 4 C2.3902803 6.58185431 2.76263148 9.16420983 3.125 11.75 C3.23714844 12.47960938 3.34929688 13.20921875 3.46484375 13.9609375 C4.01744139 18.01332018 4.1624958 20.49232965 2 24 C2.33 24.66 2.66 25.32 3 26 C-0.3 26.66 -3.6 27.32 -7 28 C-6.67 27.34 -6.34 26.68 -6 26 C-6.8971875 25.9071875 -6.8971875 25.9071875 -7.8125 25.8125 C-10.86915486 24.67717105 -11.46634026 22.78847225 -13 20 C-13.66 19.67 -14.32 19.34 -15 19 C-15.6875 16 -15.6875 16 -16 13 C-15 12 -15 12 -11.9375 11.9375 C-10.4834375 11.9684375 -10.4834375 11.9684375 -9 12 C-9 10.68 -9 9.36 -9 8 C-8.01 8 -7.02 8 -6 8 C-6 5.36 -6 2.72 -6 0 C-2.25 -1.125 -2.25 -1.125 0 0 Z " fill="#F3C6D8" transform="translate(33,32)"/>
<path d="M0 0 C3.25955558 4.11062959 5.10321327 8.44362789 7.125 13.25 C7.48464844 14.07113281 7.84429687 14.89226562 8.21484375 15.73828125 C10.38962123 20.8779239 11.77700013 25.40022557 12 31 C8.64917954 35.02098455 2.96735754 37.4092745 -2 39 C-2.66 38.67 -3.32 38.34 -4 38 C-4 37.01 -4 36.02 -4 35 C-4.20221053 33.54080509 -4.41109675 32.08252677 -4.625 30.625 C-5.05399125 26.85600548 -5.02587082 24.34268686 -3 21 C-2.01 20.34 -1.02 19.68 0 19 C0.41480107 16.97112689 0.41480107 16.97112689 0.29296875 14.6484375 C0.2784668 13.37226562 0.2784668 13.37226562 0.26367188 12.0703125 C0.23853516 11.18085937 0.21339844 10.29140625 0.1875 9.375 C0.17396484 8.4778125 0.16042969 7.580625 0.14648438 6.65625 C0.11106925 4.43690211 0.06168461 2.21874812 0 0 Z " fill="#F6BCD2" transform="translate(132,76)"/>
<path d="M0 0 C4.62 0 9.24 0 14 0 C14 0.66 14 1.32 14 2 C14.99 2 15.98 2 17 2 C17.66 6.62 18.32 11.24 19 16 C17.35 16.66 15.7 17.32 14 18 C13.67 17.01 13.34 16.02 13 15 C8.46457653 12.32782666 3.30610028 12.55821612 -1.8125 12.375 C-2.69615234 12.33632813 -3.57980469 12.29765625 -4.49023438 12.2578125 C-6.65982972 12.16399216 -8.82988547 12.08092674 -11 12 C-10.67 11.01 -10.34 10.02 -10 9 C-9.34 9 -8.68 9 -8 9 C-8 8.34 -8 7.68 -8 7 C-7.34 7 -6.68 7 -6 7 C-6 6.34 -6 5.68 -6 5 C-5.195625 4.731875 -4.39125 4.46375 -3.5625 4.1875 C-2.716875 3.795625 -1.87125 3.40375 -1 3 C-0.67 2.01 -0.34 1.02 0 0 Z " fill="#F3C8D8" transform="translate(123,4)"/>
<path d="M0 0 C0.66 0.33 1.32 0.66 2 1 C-0.64622733 3.72405755 -3.27593341 6.26155095 -6.25 8.625 C-9.20737266 10.76996366 -9.20737266 10.76996366 -10 14 C-11.670625 14.2784375 -11.670625 14.2784375 -13.375 14.5625 C-16.94121186 15.58671612 -16.94121186 15.58671612 -18.12890625 17.64453125 C-21.34473534 26.51524821 -20.26366575 36.71085283 -20 46 C-20.99 46.495 -20.99 46.495 -22 47 C-22 46.34 -22 45.68 -22 45 C-22.66 45 -23.32 45 -24 45 C-24 44.01 -24 43.02 -24 42 C-25.65 41.67 -27.3 41.34 -29 41 C-29.21246514 29.90459822 -29.20938454 19.59632156 -23 10 C-22.67 10.66 -22.34 11.32 -22 12 C-22.33 12.66 -22.66 13.32 -23 14 C-21.02463255 13.65213292 -21.02463255 13.65213292 -19 13 C-18.67 12.34 -18.34 11.68 -18 11 C-16.33499557 10.65846063 -14.66821323 10.32550502 -13 10 C-12.34 9.34 -11.68 8.68 -11 8 C-9.68 8 -8.36 8 -7 8 C-6.773125 7.236875 -6.54625 6.47375 -6.3125 5.6875 C-4.72014048 2.42695432 -3.27263601 1.4726862 0 0 Z " fill="#F4A7C0" transform="translate(54,54)"/>
<path d="M0 0 C0.66 0.99 1.32 1.98 2 3 C1.34 3 0.68 3 0 3 C-0.02895225 6.29164829 -0.0467823 9.58326399 -0.0625 12.875 C-0.07087891 13.81214844 -0.07925781 14.74929687 -0.08789062 15.71484375 C-0.09111328 16.61074219 -0.09433594 17.50664063 -0.09765625 18.4296875 C-0.10289307 19.25710449 -0.10812988 20.08452148 -0.11352539 20.93701172 C-0.13352138 23.06411757 -0.13352138 23.06411757 1 25 C0.94921875 27.2421875 0.94921875 27.2421875 0.6875 29.875 C0.56955078 31.17050781 0.56955078 31.17050781 0.44921875 32.4921875 C-0.00024537 35.00136979 -0.74470244 36.79682469 -2 39 C-1.0409375 39.1546875 -1.0409375 39.1546875 -0.0625 39.3125 C0.9584375 39.6528125 0.9584375 39.6528125 2 40 C2.33 40.99 2.66 41.98 3 43 C-2.33989586 41.49387553 -8.98177802 39.01822198 -13 35 C-12.55720092 29.87893237 -11.26175469 25.61255864 -9.3125 20.875 C-9.05065918 20.23554443 -8.78881836 19.59608887 -8.51904297 18.93725586 C-5.86965653 12.53785936 -2.97431623 6.25450186 0 0 Z " fill="#F5C5DA" transform="translate(26,72)"/>
<path d="M0 0 C3.22150968 -0.57821969 5.31111545 -0.44506586 8.0859375 1.34765625 C9.62090295 2.57293569 11.14372474 3.81353116 12.65625 5.06640625 C18.20917537 9.64756968 23.93747668 13.00183868 30.5 15.9375 C35.70982796 18.43001922 35.70982796 18.43001922 36.984375 20.93359375 C37.25 22.875 37.25 22.875 37 26 C36.01 26.33 35.02 26.66 34 27 C33.34 26.01 32.68 25.02 32 24 C29.43717258 23.27034634 29.43717258 23.27034634 27 23 C26.67 21.68 26.34 20.36 26 19 C25.154375 19 24.30875 19 23.4375 19 C18.98618657 17.70507246 17.42374444 15.4700763 14.61328125 11.91015625 C12.95898375 9.77205649 12.95898375 9.77205649 10 8 C10.66 9.98 11.32 11.96 12 14 C11.34 14 10.68 14 10 14 C9.01 15.485 9.01 15.485 8 17 C4.53768536 14.78150007 3.2002136 12.88945255 1.75 9.0625 C1.41484375 8.20785156 1.0796875 7.35320313 0.734375 6.47265625 C0 4 0 4 0 0 Z " fill="#CA788E" transform="translate(85,37)"/>
<path d="M0 0 C8.30321193 -1.06873025 14.33171814 2.70836648 21.5 6.5 C22.71538108 7.12778484 23.93152202 7.75410091 25.1484375 8.37890625 C28.10674109 9.90501524 31.05650706 11.44557115 34 13 C33.01 13.66 32.02 14.32 31 15 C31 14.34 31 13.68 31 13 C30.01 13 29.02 13 28 13 C28 13.99 28 14.98 28 16 C28.66 16 29.32 16 30 16 C30 17.98 30 19.96 30 22 C23.08336373 20.90109517 16.57263201 19.43430815 10 17 C10.99 16.34 11.98 15.68 13 15 C13.25015873 11.41642759 13.25015873 11.41642759 13 8 C11.7934375 7.814375 11.7934375 7.814375 10.5625 7.625 C9.716875 7.41875 8.87125 7.2125 8 7 C7.67 6.34 7.34 5.68 7 5 C6.01 4.67 5.02 4.34 4 4 C4 3.34 4 2.68 4 2 C2.35 2 0.7 2 -1 2 C-0.67 1.34 -0.34 0.68 0 0 Z " fill="#F1B3C7" transform="translate(33,1)"/>
<path d="M0 0 C0.33 0 0.66 0 1 0 C0.98839844 0.76183594 0.97679687 1.52367188 0.96484375 2.30859375 C0.90952706 8.63840322 1.1634074 14.72555549 2 21 C2.33 21 2.66 21 3 21 C2.56261672 28.36010478 1.90892434 35.19653172 -2.71484375 41.2421875 C-5.79589814 43.61222934 -7.45573664 43.24490392 -11.25 42.75 C-12.32765625 42.62109375 -13.4053125 42.4921875 -14.515625 42.359375 C-15.33546875 42.24078125 -16.1553125 42.1221875 -17 42 C-17 41.67 -17 41.34 -17 41 C-16.030625 40.71125 -15.06125 40.4225 -14.0625 40.125 C-10.89335797 39.35785318 -10.89335797 39.35785318 -10 37 C-9.34 37 -8.68 37 -8 37 C-5.47548399 27.89458546 -3.51591374 19.01396229 -2.68408203 9.58618164 C-2.34512231 5.98397995 -1.93370881 3.10032652 0 0 Z " fill="#F8B6CF" transform="translate(151,20)"/>
<path d="M0 0 C0.495 1.485 0.495 1.485 1 3 C0.34 3 -0.32 3 -1 3 C-1 2.34 -1 1.68 -1 1 C-3.25073828 1.06018017 -5.50072325 1.14901206 -7.75 1.25 C-9.62945312 1.31960938 -9.62945312 1.31960938 -11.546875 1.390625 C-15.45355191 2.08003857 -16.48421728 3.0610015 -19 6 C-19.66 6 -20.32 6 -21 6 C-21 6.66 -21 7.32 -21 8 C-21.66 8 -22.32 8 -23 8 C-23 8.66 -23 9.32 -23 10 C-24.5 11.625 -24.5 11.625 -26 13 C-25.34 13.33 -24.68 13.66 -24 14 C-26.39175361 15.01085436 -28.78761585 16.00879203 -31.1875 17 C-31.86103516 17.28617188 -32.53457031 17.57234375 -33.22851562 17.8671875 C-36.94993794 19.39206299 -39.96471408 20.37610432 -44 20 C-44 18.35 -44 16.7 -44 15 C-43.41992188 14.84144531 -42.83984375 14.68289062 -42.2421875 14.51953125 C-38.24520038 13.32571167 -34.94461625 12.26058078 -31.8125 9.4375 C-28.89929054 6.91271846 -26.69137085 5.9667876 -23 5 C-23 4.34 -23 3.68 -23 3 C-22.34 3 -21.68 3 -21 3 C-21 2.01 -21 1.02 -21 0 C-21.99 -0.33 -22.98 -0.66 -24 -1 C-16.17484462 -4.21032016 -7.5416186 -4.09065473 0 0 Z " fill="#F1BACB" transform="translate(138,3)"/>
<path d="M0 0 C-3.14462717 11.48569498 -3.14462717 11.48569498 -6 15 C-8.6875 16.3125 -8.6875 16.3125 -11 17 C-10.67 16.01 -10.34 15.02 -10 14 C-10.99 14 -11.98 14 -13 14 C-12.690625 13.401875 -12.38125 12.80375 -12.0625 12.1875 C-10.89790296 9.91043228 -10.89790296 9.91043228 -10 7 C-11.27200971 8.10281127 -12.54255853 9.20730769 -13.8125 10.3125 C-14.52019531 10.92738281 -15.22789063 11.54226562 -15.95703125 12.17578125 C-17.96650793 13.90723505 -17.96650793 13.90723505 -19.484375 15.62890625 C-21.36320249 17.3285672 -23.02393409 17.88424284 -25.4375 18.625 C-26.58025391 18.98464844 -26.58025391 18.98464844 -27.74609375 19.3515625 C-30 20 -30 20 -32.17578125 20.45703125 C-34.76155758 21.22667346 -35.57533106 22.79176314 -37 25 C-37.75 23.25 -37.75 23.25 -38 21 C-34.73852383 16.86043409 -30.57158445 14.63467833 -25.75 12.6875 C-20.39809245 10.46529491 -15.63137049 7.05793537 -11.08203125 3.5 C-7.24553955 0.51888503 -4.87791576 -0.59486778 0 0 Z " fill="#D27B92" transform="translate(73,37)"/>
<path d="M0 0 C7.84947531 0.98118441 14.65068963 5.2775652 19.5 11.4375 C19.16826092 14.40066094 18.64957914 15.28792086 16.5 17.4375 C12.697032 17.96241671 10.94342324 17.71084309 7.6484375 15.6796875 C-1.63712911 7.75426022 -1.63712911 7.75426022 -4.5 2.4375 C-2.5 0.4375 -2.5 0.4375 0 0 Z " fill="#F4C0D2" transform="translate(98.5,26.5625)"/>
<path d="M0 0 C-1.40217315 4.46146003 -3.3895925 7.03144272 -7 10 C-9.33967526 10.94169502 -11.51874771 11.46482794 -14 12 C-14 12.66 -14 13.32 -14 14 C-16.57213134 15.61949011 -17.67669159 16.04408751 -20.75 15.625 C-21.86375 15.315625 -21.86375 15.315625 -23 15 C-23.25220978 12.12184129 -23.35156139 10.52043831 -21.70703125 8.0859375 C-15.61318169 2.58262594 -8.28077272 0 0 0 Z " fill="#EFB1C6" transform="translate(63,27)"/>
<path d="M0 0 C1.1859375 0.00257812 2.371875 0.00515625 3.59375 0.0078125 C4.7796875 0.00523438 5.965625 0.00265625 7.1875 0 C10.09375 0.1328125 10.09375 0.1328125 11.09375 1.1328125 C11.16554964 2.65209288 11.17767007 4.17448732 11.15625 5.6953125 C11.14722656 6.52160156 11.13820313 7.34789063 11.12890625 8.19921875 C11.11730469 8.83730469 11.10570313 9.47539063 11.09375 10.1328125 C10.43375 10.1328125 9.77375 10.1328125 9.09375 10.1328125 C9.0525 10.7515625 9.01125 11.3703125 8.96875 12.0078125 C8.535625 13.0596875 8.535625 13.0596875 8.09375 14.1328125 C5.03125 15.3828125 5.03125 15.3828125 2.09375 16.1328125 C-1.41035605 11.15465446 -3.65505617 7.28706139 -3.90625 1.1328125 C-2.90625 0.1328125 -2.90625 0.1328125 0 0 Z " fill="#DB8198" transform="translate(92.90625,79.8671875)"/>
<path d="M0 0 C6.33393082 -0.34548714 11.10261508 0.70657253 17 3 C17 3.66 17 4.32 17 5 C16.39414062 5.07476563 15.78828125 5.14953125 15.1640625 5.2265625 C6.97948261 6.51091196 0.20090949 9.5590223 -5.5 15.6875 C-5.995 16.450625 -6.49 17.21375 -7 18 C-7.66 18.99 -8.32 19.98 -9 21 C-10.25664978 18.09399739 -11 16.20395416 -11 13 C-10.34 13 -9.68 13 -9 13 C-9 12.01 -9 11.02 -9 10 C-8.34 10 -7.68 10 -7 10 C-6.773125 9.38125 -6.54625 8.7625 -6.3125 8.125 C-4.62070165 5.38589791 -3.00755839 4.94975528 0 4 C0 2.68 0 1.36 0 0 Z " fill="#C77188" transform="translate(47,21)"/>
<path d="M0 0 C4.95 0 9.9 0 15 0 C14.67 0.99 14.34 1.98 14 3 C13.64984951 4.66321482 13.31802943 6.33034549 13 8 C12.66666667 9.66666667 12.33333333 11.33333333 12 13 C11.34 13 10.68 13 10 13 C9.67 13.99 9.34 14.98 9 16 C6.9375 16.6875 6.9375 16.6875 5 17 C4.67 15.68 4.34 14.36 4 13 C3.34 13 2.68 13 2 13 C2 12.34 2 11.68 2 11 C1.34 11 0.68 11 0 11 C-1.15299221 6.64425167 -0.80558057 4.83348343 0 0 Z " fill="#DC889E" transform="translate(53,80)"/>
<path d="M0 0 C5.79060164 -0.23635109 10.49577877 0.16525959 16 2 C16.33 2 16.66 2 17 2 C17.66 2.33 18.32 2.66 19 3 C18.34 6.96 17.68 10.92 17 15 C16.01 14.67 15.02 14.34 14 14 C14 13.34 14 12.68 14 12 C9.05 12.66 4.1 13.32 -1 14 C-1 12.35 -1 10.7 -1 9 C-0.21753906 9.01160156 0.56492187 9.02320313 1.37109375 9.03515625 C2.38300781 9.04417969 3.39492187 9.05320312 4.4375 9.0625 C5.95150391 9.07990234 5.95150391 9.07990234 7.49609375 9.09765625 C9.94021067 9.28612676 9.94021067 9.28612676 11 8 C9.02 7.34 7.04 6.68 5 6 C5 5.34 5 4.68 5 4 C4.01 4 3.02 4 2 4 C1.34 2.68 0.68 1.36 0 0 Z " fill="#E6A2B8" transform="translate(71,15)"/>
<path d="M0 0 C0.99 0 1.98 0 3 0 C3 1.98 3 3.96 3 6 C2.34 6 1.68 6 1 6 C1.89429088 14.34671491 2.94751423 22.67207858 4 31 C3.34 31.33 2.68 31.66 2 32 C2 31.34 2 30.68 2 30 C1.34 30 0.68 30 0 30 C0 29.01 0 28.02 0 27 C-1.65 26.67 -3.3 26.34 -5 26 C-5.05416188 24.39620659 -5.09286638 22.79188594 -5.125 21.1875 C-5.14820312 20.29417969 -5.17140625 19.40085937 -5.1953125 18.48046875 C-5 16 -5 16 -3 13 C-2.39896659 10.78610171 -1.86324191 8.55397421 -1.375 6.3125 C-1.11460938 5.13300781 -0.85421875 3.95351562 -0.5859375 2.73828125 C-0.39257812 1.83464844 -0.19921875 0.93101563 0 0 Z " fill="#F091AC" transform="translate(30,69)"/>
<path d="M0 0 C3.31055416 0.09376297 6.02390538 0.50444993 9 2 C10.75419746 4.74440138 11.84071046 7.40348129 12.9296875 10.46875 C13.85292142 13.29940517 13.85292142 13.29940517 17 15 C17.433125 14.505 17.86625 14.01 18.3125 13.5 C20 12 20 12 23 12 C23.33820166 13.5823006 23.67035939 15.16589375 24 16.75 C24.185625 17.63171875 24.37125 18.5134375 24.5625 19.421875 C25 22 25 22 25 26 C21.125 24.25 21.125 24.25 20 22 C17.47266765 21.34444881 17.47266765 21.34444881 15 21 C15 20.01 15 19.02 15 18 C14.34 18 13.68 18 13 18 C12.3291288 16.3767313 11.66342971 14.75132422 11 13.125 C10.62875 12.22007813 10.2575 11.31515625 9.875 10.3828125 C9 8 9 8 9 6 C7.68 6.33 6.36 6.66 5 7 C4.67 6.01 4.34 5.02 4 4 C3.01 4.33 2.02 4.66 1 5 C1 4.34 1 3.68 1 3 C0.34 2.67 -0.32 2.34 -1 2 C-0.67 1.34 -0.34 0.68 0 0 Z " fill="#E38CA4" transform="translate(76,38)"/>
<path d="M0 0 C1.97909398 -0.02686553 3.95828971 -0.04633375 5.9375 -0.0625 C7.03964844 -0.07410156 8.14179688 -0.08570313 9.27734375 -0.09765625 C12 0 12 0 13 1 C13.04092937 3.33297433 13.04241723 5.66705225 13 8 C12.01 8 11.02 8 10 8 C7.99888267 8.10561453 5.99885954 8.2329242 4 8.375 C2.4221875 8.47941406 2.4221875 8.47941406 0.8125 8.5859375 C-2.20028918 8.82470764 -2.20028918 8.82470764 -5 11 C-7.6875 11.125 -7.6875 11.125 -10 11 C-9.67 10.01 -9.34 9.02 -9 8 C-8.34 8 -7.68 8 -7 8 C-7 7.34 -7 6.68 -7 6 C-6.34 6 -5.68 6 -5 6 C-5 5.34 -5 4.68 -5 4 C-3.35 3.34 -1.7 2.68 0 2 C0 1.34 0 0.68 0 0 Z " fill="#F6E2EC" transform="translate(122,5)"/>
<path d="M0 0 C4.13583531 0.0738542 6.81524234 0.91849489 10.3125 3.25 C12.11443562 5.16674039 13.68754353 7.17366674 15.3125 9.25 C15.9725 9.58 16.6325 9.91 17.3125 10.25 C17.3125 10.91 17.3125 11.57 17.3125 12.25 C13.57762223 11.7520163 11.50012365 11.37508244 8.3125 9.25 C5.33800392 9.00780685 5.33800392 9.00780685 2.125 9.125 C0.49498047 9.15207031 0.49498047 9.15207031 -1.16796875 9.1796875 C-1.99941406 9.20289063 -2.83085937 9.22609375 -3.6875 9.25 C-5.7265625 5.5234375 -5.7265625 5.5234375 -5.375 3.0625 C-4.13235275 -0.21357004 -3.87460692 0.26268521 0 0 Z " fill="#F5E3EC" transform="translate(27.6875,3.75)"/>
<path d="M0 0 C0.66 0.66 1.32 1.32 2 2 C2.99 2 3.98 2 5 2 C7.31632653 8.21750806 7.31632653 8.21750806 5.8125 11.9375 C5.214375 12.618125 4.61625 13.29875 4 14 C3.01 14 2.02 14 1 14 C0.34 11.69 -0.32 9.38 -1 7 C-1.33 7 -1.66 7 -2 7 C-2.99 10.3 -3.98 13.6 -5 17 C-5.33 17 -5.66 17 -6 17 C-6 13.7 -6 10.4 -6 7 C-7.32 7.99 -8.64 8.98 -10 10 C-9.34 6.7 -8.68 3.4 -8 0 C-4.67679974 -1.10773342 -3.30835256 -0.93312508 0 0 Z " fill="#EC9EB5" transform="translate(80,42)"/>
<path d="M0 0 C1.32 0.33 2.64 0.66 4 1 C3.01 1 2.02 1 1 1 C1 1.66 1 2.32 1 3 C2.65 3 4.3 3 6 3 C5.01 3.99 4.02 4.98 3 6 C6.27725555 11.95864645 11.12610166 16.56629681 17 20 C21.13637561 20.4641818 22.48651055 20.3423263 26 18 C26 18.66 26 19.32 26 20 C26.66 20 27.32 20 28 20 C28.19814261 13.91591528 28.19814261 13.91591528 27 8 C28.48828125 9.14453125 28.48828125 9.14453125 30 11 C30.29296875 13.69921875 30.29296875 13.69921875 30.1875 16.6875 C30.16042969 17.68136719 30.13335937 18.67523438 30.10546875 19.69921875 C30.07066406 20.45847656 30.03585938 21.21773437 30 22 C25.68174422 24.15912789 19.42997523 23.68287625 14.859375 22.3984375 C13.20020093 21.68427127 11.59563546 20.84666372 10 20 C9.195625 19.608125 8.39125 19.21625 7.5625 18.8125 C7.046875 18.544375 6.53125 18.27625 6 18 C6 16.68 6 15.36 6 14 C3.58944746 12.33700035 3.58944746 12.33700035 1 11 C-0.20272819 8.59454362 -0.10071472 7.05003047 -0.0625 4.375 C-0.05347656 3.55773437 -0.04445313 2.74046875 -0.03515625 1.8984375 C-0.02355469 1.27195312 -0.01195313 0.64546875 0 0 Z " fill="#DE8EA7" transform="translate(92,23)"/>
<path d="M0 0 C0.66 0 1.32 0 2 0 C2.33 1.98 2.66 3.96 3 6 C2.4225 5.79375 1.845 5.5875 1.25 5.375 C-1.64500286 4.89249952 -2.61782573 5.30942471 -5 7 C-5.474375 7.825 -5.94875 8.65 -6.4375 9.5 C-8.33931556 12.5429049 -9.64371023 12.93581056 -13 14 C-13.721875 14.391875 -14.44375 14.78375 -15.1875 15.1875 C-15.785625 15.455625 -16.38375 15.72375 -17 16 C-17.66 15.67 -18.32 15.34 -19 15 C-19.33 15.99 -19.66 16.98 -20 18 C-21.32 18 -22.64 18 -24 18 C-23.71848913 16.68528432 -23.42446661 15.37324233 -23.125 14.0625 C-22.96257813 13.33160156 -22.80015625 12.60070312 -22.6328125 11.84765625 C-22 10 -22 10 -20 9 C-19.67 9.66 -19.34 10.32 -19 11 C-18.67 10.38125 -18.34 9.7625 -18 9.125 C-15.57520536 6.5486557 -13.46231522 6.20279304 -10.06640625 5.49609375 C-6.10317845 4.5446194 -2.86803696 2.86803696 0 0 Z " fill="#E194A9" transform="translate(55,50)"/>
<path d="M0 0 C0.99 0.495 0.99 0.495 2 1 C2.48657227 3.19311523 2.48657227 3.19311523 2.81640625 6.05859375 C2.94080078 7.08404297 3.06519531 8.10949219 3.19335938 9.16601562 C3.37608398 10.78540039 3.37608398 10.78540039 3.5625 12.4375 C3.81066833 14.5615664 4.06182267 16.68528671 4.31640625 18.80859375 C4.47798218 20.22869751 4.47798218 20.22869751 4.64282227 21.67749023 C4.88150318 24.01805787 4.88150318 24.01805787 6 26 C6.039992 27.99960012 6.04346799 30.00047242 6 32 C6.66 32 7.32 32 8 32 C8.391875 32.969375 8.78375 33.93875 9.1875 34.9375 C10.67594887 38.22176391 10.67594887 38.22176391 13.6875 38.875 C14.450625 38.91625 15.21375 38.9575 16 39 C16 39.33 16 39.66 16 40 C11.05 40.495 11.05 40.495 6 41 C4.92578125 37.72851562 4.92578125 37.72851562 3.8515625 34.45703125 C3.04473503 31.99570493 3.04473503 31.99570493 1.9375 29.7109375 C0.69229267 26.11021297 0.5346765 22.58428394 0.375 18.8125 C0.33705322 18.06234619 0.29910645 17.31219238 0.26000977 16.53930664 C-0.00214714 11.02212232 -0.08767319 5.52341119 0 0 Z " fill="#F5BDCE" transform="translate(6,22)"/>
<path d="M0 0 C8.05364285 -0.33608711 14.49783264 -0.0517291 22 3 C22 3.33 22 3.66 22 4 C20.35 4 18.7 4 17 4 C17.33 5.32 17.66 6.64 18 8 C14.04 9.98 14.04 9.98 10 12 C9.67 10.68 9.34 9.36 9 8 C6.9730273 7.02582993 4.98801494 6.55943953 2.8125 6.00390625 C1 5 1 5 0.25 2.40234375 C0.1675 1.60957031 0.085 0.81679688 0 0 Z " fill="#E68AA2" transform="translate(30,17)"/>
<path d="M0 0 C6.66700911 -0.48050516 10.69207005 0.81639396 16.5 4 C17.59054688 4.57234375 17.59054688 4.57234375 18.703125 5.15625 C20.47649265 6.08960139 22.23940082 7.04278103 24 8 C24 8.99 24 9.98 24 11 C24.99 11.33 25.98 11.66 27 12 C26 14 26 14 23.8125 14.875 C19.83711548 15.05168376 18.04878361 13.42516878 15 11 C14.67 10.34 14.34 9.68 14 9 C13.01 8.67 12.02 8.34 11 8 C10.01 7.67 9.02 7.34 8 7 C7.67 6.34 7.34 5.68 7 5 C6.01 4.67 5.02 4.34 4 4 C4 3.34 4 2.68 4 2 C2.35 2 0.7 2 -1 2 C-0.67 1.34 -0.34 0.68 0 0 Z " fill="#E99DB3" transform="translate(33,1)"/>
<path d="M0 0 C0.75410156 0.00322266 1.50820313 0.00644531 2.28515625 0.00976562 C3.06246094 0.01814453 3.83976562 0.02652344 4.640625 0.03515625 C5.43339844 0.03966797 6.22617187 0.04417969 7.04296875 0.04882812 C8.99222008 0.0605706 10.94143238 0.07850479 12.890625 0.09765625 C13.220625 0.75765625 13.550625 1.41765625 13.890625 2.09765625 C13.15457031 2.20722656 12.41851563 2.31679688 11.66015625 2.4296875 C6.44276519 3.27742739 2.28294132 3.98052854 -2.109375 7.09765625 C-2.769375 7.09765625 -3.429375 7.09765625 -4.109375 7.09765625 C-4.439375 10.06765625 -4.769375 13.03765625 -5.109375 16.09765625 C-5.769375 16.09765625 -6.429375 16.09765625 -7.109375 16.09765625 C-7.439375 17.08765625 -7.769375 18.07765625 -8.109375 19.09765625 C-8.439375 19.09765625 -8.769375 19.09765625 -9.109375 19.09765625 C-9.13655192 17.03523008 -9.1558508 14.97269922 -9.171875 12.91015625 C-9.18347656 11.76160156 -9.19507813 10.61304688 -9.20703125 9.4296875 C-9.12130332 6.50465039 -8.78786523 3.93449334 -8.109375 1.09765625 C-5.33213575 0.3107718 -2.88327423 -0.02184299 0 0 Z " fill="#E18EA5" transform="translate(18.109375,-0.09765625)"/>
<path d="M0 0 C0.66 0.33 1.32 0.66 2 1 C1.814375 1.598125 1.62875 2.19625 1.4375 2.8125 C0.77906313 5.16408762 0.77906313 5.16408762 2 8 C2.80824219 7.95359375 3.61648437 7.9071875 4.44921875 7.859375 C5.51785156 7.82328125 6.58648437 7.7871875 7.6875 7.75 C9.27111328 7.68039062 9.27111328 7.68039062 10.88671875 7.609375 C14.67082112 8.08416827 16.26396426 9.42132439 19 12 C17.96359375 12.06058594 16.9271875 12.12117188 15.859375 12.18359375 C14.48957127 12.26803371 13.11978025 12.35267997 11.75 12.4375 C10.72712891 12.49647461 10.72712891 12.49647461 9.68359375 12.55664062 C4.75123333 12.80018667 4.75123333 12.80018667 0 14 C-0.33 14.66 -0.66 15.32 -1 16 C-1.66 15.67 -2.32 15.34 -3 15 C-3 13.68 -3 12.36 -3 11 C-3.66 11 -4.32 11 -5 11 C-4.67 10.01 -4.34 9.02 -4 8 C-3.5359375 6.4840625 -3.5359375 6.4840625 -3.0625 4.9375 C-2 2 -2 2 0 0 Z " fill="#F4CEDD" transform="translate(22,4)"/>
<path d="M0 0 C3.63 0 7.26 0 11 0 C11.93203768 3.72815071 12.16561443 6.68315706 12.1875 10.5 C12.20167969 11.6240625 12.21585938 12.748125 12.23046875 13.90625 C12.00970218 16.86976056 11.5460647 18.5067415 10 21 C7.33333333 19.66666667 4.66666667 18.33333333 2 17 C2 16.34 2 15.68 2 15 C5.75 13.875 5.75 13.875 8 15 C7.979375 13.7625 7.95875 12.525 7.9375 11.25 C7.93233319 8.3359175 8.06984442 5.79046673 9 3 C8.67 3.33 8.34 3.66 8 4 C5.0280615 2.87548273 2.66559313 1.77706209 0 0 Z " fill="#EBB0C7" transform="translate(80,15)"/>
<path d="M0 0 C2.08304538 -0.05418326 4.16649768 -0.09287551 6.25 -0.125 C7.99023438 -0.15980469 7.99023438 -0.15980469 9.765625 -0.1953125 C12.82786046 -0.0103949 14.44202751 0.39176977 17 2 C16.67 2.66 16.34 3.32 16 4 C16.66 4 17.32 4 18 4 C19.32229189 6.64458379 19.09677194 8.67761301 19.0625 11.625 C19.05347656 12.62789062 19.04445312 13.63078125 19.03515625 14.6640625 C19.02355469 15.43492188 19.01195312 16.20578125 19 17 C18.34 17.33 17.68 17.66 17 18 C16.67 15.36 16.34 12.72 16 10 C15.01 10 14.02 10 13 10 C12.67 9.01 12.34 8.02 12 7 C8.23910808 3.34972254 4.96996601 2.16940377 0 1 C0 0.67 0 0.34 0 0 Z " fill="#E292AA" transform="translate(129,0)"/>
<path d="M0 0 C2.46237678 2.46237678 2.95616552 4.14393836 3.1328125 7.59375 C3.12894531 9.03234375 3.12894531 9.03234375 3.125 10.5 C3.12757813 11.4590625 3.13015625 12.418125 3.1328125 13.40625 C3 16 3 16 2 19 C1.01 19 0.02 19 -1 19 C-1 19.99 -1 20.98 -1 22 C-1.99 22.33 -2.98 22.66 -4 23 C-2.67279412 2.67279412 -2.67279412 2.67279412 0 0 Z " fill="#F18FAA" transform="translate(128,77)"/>
<path d="M0 0 C3.63396553 1.00943487 4.93391767 1.91605758 7.3125 4.9375 C9 8 9 8 9 11 C9.66 11 10.32 11 11 11 C13 14 13 14 12.75 15.875 C11.90092985 18.28069876 10.98118661 20.64515214 10 23 C7.07006367 19.79102212 6.0881107 16.44145996 4.828125 12.38671875 C3.99521293 9.9862033 2.97903844 7.81753382 1.8125 5.5625 C0 2 0 2 0 0 Z " fill="#F6ACC6" transform="translate(101,53)"/>
<path d="M0 0 C0.33 0.99 0.66 1.98 1 3 C1.66 3 2.32 3 3 3 C3.33 2.01 3.66 1.02 4 0 C4.99 0.99 5.98 1.98 7 3 C7.99 2.67 8.98 2.34 10 2 C9.67 5.63 9.34 9.26 9 13 C7.68 13.33 6.36 13.66 5 14 C3.80161791 16.32854463 3.80161791 16.32854463 3 19 C2.34786461 20.34050052 1.68620031 21.67661368 1 23 C-0.65 22.67 -2.3 22.34 -4 22 C-4 21.01 -4 20.02 -4 19 C-3.05125 18.566875 -2.1025 18.13375 -1.125 17.6875 C2.20041937 16.20697799 2.20041937 16.20697799 4 13 C4.66 13 5.32 13 6 13 C5.89386164 10.54775306 5.89386164 10.54775306 5 8 C2.52363988 6.62533375 2.52363988 6.62533375 0 6 C0 4.02 0 2.04 0 0 Z " fill="#F3AFC5" transform="translate(133,38)"/>
<path d="M0 0 C0.66 0.33 1.32 0.66 2 1 C2 1.99 2 2.98 2 4 C3.32 4 4.64 4 6 4 C6 4.99 6 5.98 6 7 C6.66 7 7.32 7 8 7 C8 7.66 8 8.32 8 9 C3.8154853 10.19774153 1.49813472 9.75345375 -2.5 8.125 C-6.0047439 6.71719557 -9.27160757 5.63490741 -13 5 C-13 4.34 -13 3.68 -13 3 C-12.14535156 2.86722656 -11.29070312 2.73445313 -10.41015625 2.59765625 C-9.30542969 2.42105469 -8.20070313 2.24445312 -7.0625 2.0625 C-5.96035156 1.88847656 -4.85820313 1.71445312 -3.72265625 1.53515625 C-1.09573071 1.28154864 -1.09573071 1.28154864 0 0 Z " fill="#CA7389" transform="translate(106,21)"/>
<path d="M0 0 C0.66 0.33 1.32 0.66 2 1 C1.71572583 2.58467728 1.42225182 4.1677057 1.125 5.75 C0.96257812 6.63171875 0.80015625 7.5134375 0.6328125 8.421875 C0.03203736 10.86947744 -0.77997117 12.80599857 -2 15 C-2.66 15 -3.32 15 -4 15 C-4.66 16.32 -5.32 17.64 -6 19 C-7.65 19 -9.3 19 -11 19 C-11.33 18.34 -11.66 17.68 -12 17 C-11.34 17 -10.68 17 -10 17 C-9.690625 16.21625 -9.38125 15.4325 -9.0625 14.625 C-8 12 -8 12 -7 10 C-6.34 10 -5.68 10 -5 10 C-4.5978125 8.3603125 -4.5978125 8.3603125 -4.1875 6.6875 C-3.12336261 3.38307337 -2.65345336 2.05039578 0 0 Z " fill="#E392AB" transform="translate(145,42)"/>
<path d="M0 0 C0.33 0 0.66 0 1 0 C1.08160748 1.89510699 1.13946459 3.79124504 1.1875 5.6875 C1.23970703 7.27111328 1.23970703 7.27111328 1.29296875 8.88671875 C0.89282628 13.13889939 -0.82279704 15.63444456 -3.5625 18.8125 C-5 20 -5 20 -7 20 C-7 20.66 -7 21.32 -7 22 C-8.62626404 23.38232443 -10.2925002 24.71937515 -12 26 C-12.99 25.01 -13.98 24.02 -15 23 C-14.67 22.34 -14.34 21.68 -14 21 C-12.515 20.5359375 -12.515 20.5359375 -11 20.0625 C-10.01 19.711875 -9.02 19.36125 -8 19 C-7.67 18.01 -7.34 17.02 -7 16 C-6.34 16 -5.68 16 -5 16 C-5.020625 15.05125 -5.04125 14.1025 -5.0625 13.125 C-5 10 -5 10 -4 8 C-3.34 8 -2.68 8 -2 8 C-1.34 5.36 -0.68 2.72 0 0 Z " fill="#EFA3BB" transform="translate(109,74)"/>
<path d="M0 0 C2.61182691 5.22365382 3.47259318 7.44027008 1.625 13 C0.64519755 16.00350659 -0.23195413 18.92781653 -1 22 C-4.96 21.67 -8.92 21.34 -13 21 C-13 20.67 -13 20.34 -13 20 C-12.030625 19.71125 -11.06125 19.4225 -10.0625 19.125 C-6.89335797 18.35785318 -6.89335797 18.35785318 -6 16 C-5.34 16 -4.68 16 -4 16 C-2.68 10.72 -1.36 5.44 0 0 Z " fill="#F8B2CA" transform="translate(147,41)"/>
<path d="M0 0 C3.465 1.98 3.465 1.98 7 4 C7.33 3.01 7.66 2.02 8 1 C10.875 0.875 10.875 0.875 14 1 C14.66 1.66 15.32 2.32 16 3 C11.67211342 6.63542473 6.53749203 8.89250159 1 10 C1 10.66 1 11.32 1 12 C-0.32 11.67 -1.64 11.34 -3 11 C-2.505 10.484375 -2.01 9.96875 -1.5 9.4375 C0.49649241 6.19319983 0.21564385 3.73782666 0 0 Z " fill="#F4AAC0" transform="translate(36,45)"/>
<path d="M0 0 C0 2 0 2 -1.9375 4 C-2.618125 4.66 -3.29875 5.32 -4 6 C-4.33 6.66 -4.66 7.32 -5 8 C-7.5625 8.625 -7.5625 8.625 -10 9 C-10 9.66 -10 10.32 -10 11 C-12.64738916 12.4606285 -13.89448334 13 -17 13 C-16.690625 12.236875 -16.38125 11.47375 -16.0625 10.6875 C-15.32106407 8.81210323 -14.63771783 6.91315348 -14 5 C-9.69613773 1.35352958 -5.74634939 -0.71829367 0 0 Z " fill="#F5CADB" transform="translate(59,30)"/>
<path d="M0 0 C0.66 0 1.32 0 2 0 C2.66 0.66 3.32 1.32 4 2 C4.99 2.33 5.98 2.66 7 3 C7.625 4.875 7.625 4.875 8 7 C8.33 7.99 8.66 8.98 9 10 C9.66 10 10.32 10 11 10 C11.33 11.32 11.66 12.64 12 14 C11.34 14 10.68 14 10 14 C9.01 15.485 9.01 15.485 8 17 C4.53768536 14.78150007 3.2002136 12.88945255 1.75 9.0625 C1.41484375 8.20785156 1.0796875 7.35320313 0.734375 6.47265625 C0 4 0 4 0 0 Z " fill="#C66F86" transform="translate(85,37)"/>
<path d="M0 0 C2.97 0.495 2.97 0.495 6 1 C5.34 7.27 4.68 13.54 4 20 C2.02 20.66 0.04 21.32 -2 22 C-0.94124926 18.59687262 0.00902154 15.98646769 2 13 C-1.3 13.66 -4.6 14.32 -8 15 C-7.67 14.34 -7.34 13.68 -7 13 C-4.71484375 12.5859375 -4.71484375 12.5859375 -1.9375 12.375 C-0.55884766 12.26285156 -0.55884766 12.26285156 0.84765625 12.1484375 C1.91306641 12.07496094 1.91306641 12.07496094 3 12 C3 11.34 3 10.68 3 10 C2.01 9.67 1.02 9.34 0 9 C0.66 9 1.32 9 2 9 C2 7.02 2 5.04 2 3 C1.34 3 0.68 3 0 3 C0 2.01 0 1.02 0 0 Z " fill="#DE90A8" transform="translate(61,14)"/>
<path d="M0 0 C4.45673159 0.49871064 6.57687178 2.02004362 9.8125 5.0625 C10.60269531 5.79597656 11.39289063 6.52945313 12.20703125 7.28515625 C13.09455078 8.13400391 13.09455078 8.13400391 14 9 C13.42655063 11.86724686 13.1385485 12.8614515 11 15 C8.3125 15.5 8.3125 15.5 5 15 C2.4322263 13.22983136 0.20905756 11.19598621 -2 9 C-1.34 8.67 -0.68 8.34 0 8 C2.4750171 9.11431765 4.67883419 10.58150978 7 12 C7 12.66 7 13.32 7 14 C7.99 14 8.98 14 10 14 C9.28221207 9.90536284 9.28221207 9.90536284 8 6 C5.63276087 4.51953703 5.63276087 4.51953703 3 4 C2.01 3.34 1.02 2.68 0 2 C0 1.34 0 0.68 0 0 Z " fill="#EEADC3" transform="translate(104,29)"/>
<path d="M0 0 C-0.99 0.66 -1.98 1.32 -3 2 C-3.76326812 3.94581059 -3.76326812 3.94581059 -4.125 6.1875 C-4.2796875 6.98414063 -4.434375 7.78078125 -4.59375 8.6015625 C-5.12360667 11.72975476 -5.59820742 14.85262475 -6 18 C-6.99 18 -7.98 18 -9 18 C-9 13.71 -9 9.42 -9 5 C-9.66 4.67 -10.32 4.34 -11 4 C-11.33 4.99 -11.66 5.98 -12 7 C-11.67 5.35 -11.34 3.7 -11 2 C-7.17679443 0.57741188 -4.08718695 -0.24042276 0 0 Z " fill="#F5BCCC" transform="translate(14,0)"/>
<path d="M0 0 C0.66 0.33 1.32 0.66 2 1 C1.26567234 3.10968724 0.51192319 5.21262133 -0.25 7.3125 C-0.66765625 8.48425781 -1.0853125 9.65601563 -1.515625 10.86328125 C-3.00933254 14.01972114 -4.04341863 15.25005761 -7 17 C-7.66 16.67 -8.32 16.34 -9 16 C-8.67 15.34 -8.34 14.68 -8 14 C-8.99 14 -9.98 14 -11 14 C-9.43909056 10.16867684 -6.8924866 7.8924866 -4 5 C-3.67 4.01 -3.34 3.02 -3 2 C-2.01 2 -1.02 2 0 2 C0 1.34 0 0.68 0 0 Z " fill="#BE697F" transform="translate(71,37)"/>
<path d="M0 0 C0 2.97 0 5.94 0 9 C-0.66 9 -1.32 9 -2 9 C-2.04125 9.61875 -2.0825 10.2375 -2.125 10.875 C-2.558125 11.926875 -2.558125 11.926875 -3 13 C-6.0625 14.25 -6.0625 14.25 -9 15 C-9.33 14.34 -9.66 13.68 -10 13 C-9.34 13 -8.68 13 -8 13 C-8 12.34 -8 11.68 -8 11 C-7.01 11 -6.02 11 -5 11 C-4.67 8.36 -4.34 5.72 -4 3 C-4.763125 2.87625 -5.52625 2.7525 -6.3125 2.625 C-9 2 -9 2 -12 0 C-4.5 -1.125 -4.5 -1.125 0 0 Z " fill="#E88EA7" transform="translate(104,81)"/>
<path d="M0 0 C2.475 0.99 2.475 0.99 5 2 C5 3.65 5 5.3 5 7 C4.34 7 3.68 7 3 7 C2.34 8.32 1.68 9.64 1 11 C-1.33294775 11.04241723 -3.66702567 11.04092937 -6 11 C-7 10 -7 10 -7.0625 7.4375 C-7.041875 6.633125 -7.02125 5.82875 -7 5 C-3.535 4.505 -3.535 4.505 0 4 C0 2.68 0 1.36 0 0 Z " fill="#F5BFD2" transform="translate(134,44)"/>
<path d="M0 0 C5.34844008 0.53484401 9.35796103 2.46690767 14 5 C14 5.66 14 6.32 14 7 C14.928125 7.4640625 14.928125 7.4640625 15.875 7.9375 C17.25 8.625 18.625 9.3125 20 10 C19.67 11.32 19.34 12.64 19 14 C18.34 14 17.68 14 17 14 C16.34 13.01 15.68 12.02 15 11 C12.43717258 10.27034634 12.43717258 10.27034634 10 10 C9.67 8.68 9.34 7.36 9 6 C7.6078125 5.8453125 7.6078125 5.8453125 6.1875 5.6875 C2.97535795 4.99468505 1.88069983 4.6120831 0 2 C0 1.34 0 0.68 0 0 Z " fill="#E388A0" transform="translate(102,50)"/>
<path d="M0 0 C1.42944945 2.35438733 2.08661261 3.48032433 1.625 6.25 C1.41875 6.8275 1.2125 7.405 1 8 C-0.32 7.67 -1.64 7.34 -3 7 C-3.33 8.65 -3.66 10.3 -4 12 C-5.37562854 10.71034824 -6.70766393 9.37310707 -8 8 C-8 7.34 -8 6.68 -8 6 C-8.66 6 -9.32 6 -10 6 C-10 5.01 -10 4.02 -10 3 C-6.62637846 0.39749195 -4.23092172 -0.36265043 0 0 Z " fill="#F2B3C7" transform="translate(128,25)"/>
<path d="M0 0 C2.97 0.33 5.94 0.66 9 1 C9 3.31 9 5.62 9 8 C8.34 8 7.68 8 7 8 C7 9.65 7 11.3 7 13 C6.67 12.01 6.34 11.02 6 10 C5.34 10 4.68 10 4 10 C3.34 8.68 2.68 7.36 2 6 C0.68 6 -0.64 6 -2 6 C-1.34 4.02 -0.68 2.04 0 0 Z " fill="#F0B2CA" transform="translate(29,26)"/>
<path d="M0 0 C2.97 0.495 2.97 0.495 6 1 C6.78688445 3.77723925 7.11949924 6.22610077 7.09765625 9.109375 C7.09282227 10.24052734 7.09282227 10.24052734 7.08789062 11.39453125 C7.07951172 12.17183594 7.07113281 12.94914063 7.0625 13.75 C7.05798828 14.54277344 7.05347656 15.33554687 7.04882812 16.15234375 C7.03708565 18.10159508 7.01915146 20.05080738 7 22 C6.34 22 5.68 22 5 22 C5 23.98 5 25.96 5 28 C4.67 28 4.34 28 4 28 C3.98541748 27.3294458 3.97083496 26.6588916 3.95581055 25.96801758 C3.881117 22.91561178 3.78452701 19.86427415 3.6875 16.8125 C3.66494141 15.75740234 3.64238281 14.70230469 3.61914062 13.61523438 C3.58369141 12.59365234 3.54824219 11.57207031 3.51171875 10.51953125 C3.48553467 9.58214111 3.45935059 8.64475098 3.43237305 7.67895508 C2.92871527 4.55832448 1.76675856 2.59357688 0 0 Z " fill="#D795A8" transform="translate(149,2)"/>
<path d="M0 0 C1.81325551 0.11351517 3.62563357 0.24112961 5.4375 0.375 C6.95150391 0.47941406 6.95150391 0.47941406 8.49609375 0.5859375 C9.73552734 0.79089844 9.73552734 0.79089844 11 1 C11.33 1.66 11.66 2.32 12 3 C10.68 3 9.36 3 8 3 C8.99 4.485 8.99 4.485 10 6 C10.23046875 8.41015625 10.23046875 8.41015625 10.1875 11.0625 C10.17783203 12.37927734 10.17783203 12.37927734 10.16796875 13.72265625 C10 16 10 16 9 18 C8.34 18 7.68 18 7 18 C5.64908472 15.29816945 5.66141942 12.88191794 5.4375 9.875 C5.35371094 8.77929688 5.26992187 7.68359375 5.18359375 6.5546875 C5.12300781 5.71164063 5.06242188 4.86859375 5 4 C4.34 4 3.68 4 3 4 C3 3.34 3 2.68 3 2 C2.01 1.34 1.02 0.68 0 0 Z " fill="#F5BACD" transform="translate(142,0)"/>
<path d="M0 0 C1.32 0 2.64 0 4 0 C4.33820166 1.5823006 4.67035939 3.16589375 5 4.75 C5.185625 5.63171875 5.37125 6.5134375 5.5625 7.421875 C6 10 6 10 6 14 C4.0625 13.25 4.0625 13.25 2 12 C1.25 9.875 1.25 9.875 1 8 C-0.32 7.67 -1.64 7.34 -3 7 C-3.33 5.35 -3.66 3.7 -4 2 C-3.01 2.495 -3.01 2.495 -2 3 C-1.34 2.01 -0.68 1.02 0 0 Z " fill="#DC849B" transform="translate(95,50)"/>
<path d="M0 0 C0.33 1.98 0.66 3.96 1 6 C0.4225 5.79375 -0.155 5.5875 -0.75 5.375 C-3.64500286 4.89249952 -4.61782573 5.30942471 -7 7 C-7.474375 7.825 -7.94875 8.65 -8.4375 9.5 C-10.33931556 12.5429049 -11.64371023 12.93581056 -15 14 C-16.34050052 14.65213539 -17.67661368 15.31379969 -19 16 C-19.33 15.34 -19.66 14.68 -20 14 C-19.34 13.01 -18.68 12.02 -18 11 C-17.01 11 -16.02 11 -15 11 C-15 10.01 -15 9.02 -15 8 C-14.154375 7.79375 -13.30875 7.5875 -12.4375 7.375 C-8.66122905 5.86449162 -6.43976415 3.99509328 -3.515625 1.2421875 C-2 0 -2 0 0 0 Z " fill="#EC93AE" transform="translate(57,50)"/>
<path d="M0 0 C1.65456605 2.48184908 2.50461669 4.19155535 3.4375 6.9375 C5.03196746 11.39661728 5.03196746 11.39661728 8 15 C11.12586875 15.33397787 11.12586875 15.33397787 14 15 C14.33 11.37 14.66 7.74 15 4 C15.33 4 15.66 4 16 4 C16.02686553 5.97909398 16.04633375 7.95828971 16.0625 9.9375 C16.07410156 11.03964844 16.08570312 12.14179687 16.09765625 13.27734375 C16 16 16 16 15 17 C12.44380996 17.0315579 9.90219659 16.93173369 7.34765625 16.83984375 C4.80700561 16.75476747 4.80700561 16.75476747 3 19 C1.89369909 16.78739818 1.76941623 15.26593534 1.5625 12.8125 C1.14619505 8.66287965 0.26634906 4.96789371 -1 1 C-0.67 0.67 -0.34 0.34 0 0 Z " fill="#EDA3BB" transform="translate(85,64)"/>
<path d="M0 0 C0.66 0.99 1.32 1.98 2 3 C1.34 3 0.68 3 0 3 C0.01160156 3.58265625 0.02320313 4.1653125 0.03515625 4.765625 C0.10993846 11.56012255 -0.34944959 18.23892255 -1 25 C-1.33 25 -1.66 25 -2 25 C-2.33 22.69 -2.66 20.38 -3 18 C-3.99 18.66 -4.98 19.32 -6 20 C-5.62625268 12.40047112 -3.42410997 6.7597743 0 0 Z " fill="#F3BACD" transform="translate(26,72)"/>
<path d="M0 0 C0.66 0 1.32 0 2 0 C2 0.66 2 1.32 2 2 C2.99 2.33 3.98 2.66 5 3 C7.28038338 6.24054481 7.25274641 9.12455506 7 13 C6.67 13.66 6.34 14.32 6 15 C5.34 15 4.68 15 4 15 C3.79375 14.113125 3.5875 13.22625 3.375 12.3125 C1.61695642 8.07721318 -0.35373333 6.69506667 -4 4 C-2.68 3.34 -1.36 2.68 0 2 C0 1.34 0 0.68 0 0 Z " fill="#D8849B" transform="translate(114,28)"/>
<path d="M0 0 C0.99 0.33 1.98 0.66 3 1 C2.34 9.58 1.68 18.16 1 27 C-1 25 -1 25 -1.24291992 22.80102539 C-1.23881104 21.90891357 -1.23470215 21.01680176 -1.23046875 20.09765625 C-1.22853516 19.12505859 -1.22660156 18.15246094 -1.22460938 17.15039062 C-1.21236328 16.13138672 -1.20011719 15.11238281 -1.1875 14.0625 C-1.18685547 13.04736328 -1.18621094 12.03222656 -1.18554688 10.98632812 C-1.14048812 3.42146437 -1.14048812 3.42146437 0 0 Z " fill="#DA8EA5" transform="translate(3,4)"/>
<path d="M0 0 C0.66 0.33 1.32 0.66 2 1 C0.4719611 6.09882455 -1.71036856 10.65665659 -4.125 15.375 C-4.49753906 16.11105469 -4.87007812 16.84710938 -5.25390625 17.60546875 C-6.1656122 19.40550358 -7.08229932 21.20301402 -8 23 C-8.33 23 -8.66 23 -9 23 C-9 20.03 -9 17.06 -9 14 C-8.34 13.67 -7.68 13.34 -7 13 C-6.20232884 10.96637681 -5.59725066 8.90638777 -4.9765625 6.8125 C-4 5 -4 5 -1.8984375 4.25 C-1.27195312 4.1675 -0.64546875 4.085 0 4 C0 2.68 0 1.36 0 0 Z " fill="#EAB2C5" transform="translate(62,92)"/>
<path d="M0 0 C2.92386501 3.45068753 4.54011059 7.27631638 6.1875 11.4375 C6.46013672 12.09298828 6.73277344 12.74847656 7.01367188 13.42382812 C8.47471443 17.07460362 9.34156016 20.06067281 9 24 C8.731875 23.4225 8.46375 22.845 8.1875 22.25 C7.0547579 19.9565905 7.0547579 19.9565905 5.4375 17.9375 C4 16 4 16 3 13 C1.68 13.33 0.36 13.66 -1 14 C-0.9278125 13.40832031 -0.855625 12.81664063 -0.78125 12.20703125 C-0.30089977 8.11738278 0.13310151 4.1261469 0 0 Z " fill="#F4C5D8" transform="translate(135,83)"/>
<path d="M0 0 C-0.99 0.66 -1.98 1.32 -3 2 C-2.67 2.99 -2.34 3.98 -2 5 C-1.01 5 -0.02 5 1 5 C1 5.66 1 6.32 1 7 C3.31 7.33 5.62 7.66 8 8 C7.67 8.66 7.34 9.32 7 10 C5.741875 10.020625 4.48375 10.04125 3.1875 10.0625 C2.47980469 10.07410156 1.77210937 10.08570313 1.04296875 10.09765625 C-1 10 -1 10 -4 9 C-4 7.68 -4 6.36 -4 5 C-5.32 5 -6.64 5 -8 5 C-8 3.68 -8 2.36 -8 1 C-5.29120665 -0.35439668 -2.99066732 -0.06501451 0 0 Z " fill="#F2B4CA" transform="translate(75,14)"/>
<path d="M0 0 C6.6739772 7.2807024 5.2147898 17.83563513 5 27 C4.01 27.33 3.02 27.66 2 28 C2.02320313 27.10539062 2.04640625 26.21078125 2.0703125 25.2890625 C2.16925825 18.65969714 2.02307688 12.53835451 0.4375 6.0859375 C0 4 0 4 0 0 Z " fill="#F4A3BB" transform="translate(128,68)"/>
<path d="M0 0 C3.63 0.33 7.26 0.66 11 1 C10.01 1.66 9.02 2.32 8 3 C6.66209359 3.99387334 5.32781878 4.9926892 4 6 C4.33 7.98 4.66 9.96 5 12 C4.01 12.33 3.02 12.66 2 13 C2 12.34 2 11.68 2 11 C1.34 11 0.68 11 0 11 C-1.05404945 7.01803543 -0.84098656 4.01804691 0 0 Z " fill="#E98FA9" transform="translate(53,80)"/>
<path d="M0 0 C0.33 2.31 0.66 4.62 1 7 C-1.31 8.32 -3.62 9.64 -6 11 C-7.32 9.68 -8.64 8.36 -10 7 C-8.90536178 5.82438854 -7.79892814 4.6597511 -6.6875 3.5 C-6.07261719 2.8503125 -5.45773438 2.200625 -4.82421875 1.53125 C-3 0 -3 0 0 0 Z " fill="#EB96B0" transform="translate(58,37)"/>
<path d="M0 0 C0 0.66 0 1.32 0 2 C-0.99 2 -1.98 2 -3 2 C-3.020625 2.598125 -3.04125 3.19625 -3.0625 3.8125 C-4 6 -4 6 -7.375 7.5625 C-8.57125 8.036875 -9.7675 8.51125 -11 9 C-11.53625 9.53625 -12.0725 10.0725 -12.625 10.625 C-14.5411299 12.5411299 -16.3741111 12.64515015 -19 13 C-17.60969491 8.82908473 -14.64409711 7.24775083 -11.1875 4.8125 C-10.55779297 4.34908203 -9.92808594 3.88566406 -9.27929688 3.40820312 C-8.66505859 2.97056641 -8.05082031 2.53292969 -7.41796875 2.08203125 C-6.85875732 1.68218018 -6.2995459 1.2823291 -5.72338867 0.87036133 C-4 0 -4 0 0 0 Z " fill="#C5758B" transform="translate(71,37)"/>
<path d="M0 0 C3.39145689 0.30831426 5.53408183 0.66000566 8.3125 2.6875 C10.33999434 5.46591817 10.69168574 7.60854311 11 11 C10.01 11 9.02 11 8 11 C8 10.34 8 9.68 8 9 C7.38125 8.7525 6.7625 8.505 6.125 8.25 C3.64931313 6.79371361 3.04874998 5.62187494 2 3 C1.34 3 0.68 3 0 3 C0 2.01 0 1.02 0 0 Z " fill="#F5DBE7" transform="translate(103,32)"/>
<path d="M0 0 C-0.350625 0.94875 -0.70125 1.8975 -1.0625 2.875 C-2.35026777 5.87060172 -2.35026777 5.87060172 -1 8 C-4.3 8.66 -7.6 9.32 -11 10 C-10.67 9.34 -10.34 8.68 -10 8 C-10.928125 7.9071875 -10.928125 7.9071875 -11.875 7.8125 C-14 7 -14 7 -15.25 4.4375 C-15.4975 3.633125 -15.745 2.82875 -16 2 C-15.34 2 -14.68 2 -14 2 C-14 2.66 -14 3.32 -14 4 C-11.03 4.33 -8.06 4.66 -5 5 C-5 4.01 -5 3.02 -5 2 C-2 0 -2 0 0 0 Z " fill="#F3C0D2" transform="translate(37,50)"/>
<path d="M0 0 C0 0.66 0 1.32 0 2 C-0.66 2 -1.32 2 -2 2 C-2 2.66 -2 3.32 -2 4 C-1.34 4 -0.68 4 0 4 C0.3690205 13.41002278 0.3690205 13.41002278 -2 18 C-2.33 18 -2.66 18 -3 18 C-3 14.7 -3 11.4 -3 8 C-4.32 8.99 -5.64 9.98 -7 11 C-6.34 7.7 -5.68 4.4 -5 1 C-2 0 -2 0 0 0 Z " fill="#EB9CB3" transform="translate(77,41)"/>
<path d="M0 0 C1.60407328 -0.02708567 3.2082785 -0.04643483 4.8125 -0.0625 C5.70582031 -0.07410156 6.59914063 -0.08570312 7.51953125 -0.09765625 C10 0 10 0 13 1 C13 1.66 13 2.32 13 3 C10.73139163 3.5304408 8.46001511 4.04905434 6.1875 4.5625 C4.29064453 4.99755859 4.29064453 4.99755859 2.35546875 5.44140625 C-1 6 -1 6 -4 5 C-3.34 4.01 -2.68 3.02 -2 2 C-1.34 2 -0.68 2 0 2 C0 1.34 0 0.68 0 0 Z " fill="#BA667E" transform="translate(51,23)"/>
<path d="M0 0 C3.375 0.25 3.375 0.25 7 1 C8.4375 3.0625 8.4375 3.0625 9 5 C8.34 5 7.68 5 7 5 C6.67 6.32 6.34 7.64 6 9 C3.03 8.505 3.03 8.505 0 8 C0 7.34 0 6.68 0 6 C-0.66 6 -1.32 6 -2 6 C-2.33 6.99 -2.66 7.98 -3 9 C-3.99 8.67 -4.98 8.34 -6 8 C-5.67 7.01 -5.34 6.02 -5 5 C-0.545 4.505 -0.545 4.505 4 4 C2.68 2.68 1.36 1.36 0 0 Z " fill="#D3839B" transform="translate(78,32)"/>
<path d="M0 0 C0.33 0 0.66 0 1 0 C1.05422947 1.4370809 1.09289723 2.87475462 1.125 4.3125 C1.14820313 5.11300781 1.17140625 5.91351563 1.1953125 6.73828125 C1 9 1 9 -1 12 C-1.27543845 14.42045438 -1.27543845 14.42045438 -1.1953125 17.10546875 C-1.18886719 18.08837891 -1.18242188 19.07128906 -1.17578125 20.08398438 C-1.15902344 21.10814453 -1.14226563 22.13230469 -1.125 23.1875 C-1.11597656 24.22326172 -1.10695313 25.25902344 -1.09765625 26.32617188 C-1.0740786 28.88434685 -1.0411703 31.44205748 -1 34 C-1.33 34 -1.66 34 -2 34 C-4.4797048 15.95571956 -4.4797048 15.95571956 -4 9 C-3.34 8.34 -2.68 7.68 -2 7 C-1.67 7 -1.34 7 -1 7 C-0.67 4.69 -0.34 2.38 0 0 Z " fill="#F0ABC1" transform="translate(8,11)"/>
<path d="M0 0 C0 1.65 0 3.3 0 5 C-0.64066406 4.98839844 -1.28132813 4.97679687 -1.94140625 4.96484375 C-7.08653222 4.91116881 -11.93024924 5.11830422 -17 6 C-17 4.35 -17 2.7 -17 1 C-15.86111328 1.01740234 -15.86111328 1.01740234 -14.69921875 1.03515625 C-13.70535156 1.04417969 -12.71148437 1.05320312 -11.6875 1.0625 C-10.70136719 1.07410156 -9.71523437 1.08570312 -8.69921875 1.09765625 C-5.59766566 0.98544376 -3.12527907 0 0 0 Z " fill="#C2748A" transform="translate(87,23)"/>
<path d="M0 0 C-0.27259009 6.77386385 -1.19053359 11.34724339 -5 17 C-5.99 17 -6.98 17 -8 17 C-7.71125 16.34 -7.4225 15.68 -7.125 15 C-5.76533571 11.37422856 -4.91082634 7.76474885 -4 4 C-3.67 3.01 -3.34 2.02 -3 1 C-1 0 -1 0 0 0 Z " fill="#D7A8B8" transform="translate(153,45)"/>
<path d="M0 0 C1.48828125 1.14453125 1.48828125 1.14453125 3 3 C3.29296875 5.69921875 3.29296875 5.69921875 3.1875 8.6875 C3.16042969 9.68136719 3.13335937 10.67523438 3.10546875 11.69921875 C3.07066406 12.45847656 3.03585938 13.21773437 3 14 C0.426671 15.2866645 -1.50223038 15.16824551 -4.375 15.1875 C-5.80972656 15.20876953 -5.80972656 15.20876953 -7.2734375 15.23046875 C-10.03010017 14.99745572 -11.64947395 14.40920164 -14 13 C-11.49303503 12.22862616 -9.59184514 12.00832969 -6.9375 12.0625 C-3.80666091 12.25885068 -3.80666091 12.25885068 -1 10 C-1 10.66 -1 11.32 -1 12 C-0.34 12 0.32 12 1 12 C1.19814261 5.91591528 1.19814261 5.91591528 0 0 Z " fill="#E898B2" transform="translate(119,31)"/>
<path d="M0 0 C2.63091701 1.3154585 2.76872987 2.3941067 3.75 5.125 C5.26784867 9.84467869 4.83548387 12.45959254 3 17 C1.35 17.33 -0.3 17.66 -2 18 C-2.33 17.34 -2.66 16.68 -3 16 C-1.68 15.34 -0.36 14.68 1 14 C0.67 9.38 0.34 4.76 0 0 Z " fill="#EDADC4" transform="translate(140,6)"/>
<path d="M0 0 C0 0.99 0 1.98 0 3 C-0.66 3 -1.32 3 -2 3 C-2 3.66 -2 4.32 -2 5 C-3.6796875 6.2890625 -3.6796875 6.2890625 -5.875 7.625 C-6.59429687 8.07101562 -7.31359375 8.51703125 -8.0546875 8.9765625 C-10 10 -10 10 -12 10 C-12 9.34 -12 8.68 -12 8 C-11.34 8 -10.68 8 -10 8 C-10.33 6.35 -10.66 4.7 -11 3 C-7.14243493 0.84694043 -4.44870215 -0.39253254 0 0 Z " fill="#DA92A6" transform="translate(117,3)"/>
<path d="M0 0 C0 0.99 0 1.98 0 3 C-3.82320557 4.42258812 -6.91281305 5.24042276 -11 5 C-11 3.35 -11 1.7 -11 0 C-3.375 -2.25 -3.375 -2.25 0 0 Z " fill="#F1B0C3" transform="translate(105,18)"/>
<path d="M0 0 C0.99 0 1.98 0 3 0 C3.13277344 1.07121094 3.26554687 2.14242187 3.40234375 3.24609375 C3.5805056 4.64325769 3.75890319 6.04039159 3.9375 7.4375 C4.02451172 8.14455078 4.11152344 8.85160156 4.20117188 9.58007812 C4.38216191 13.08817968 4.38216191 13.08817968 6 16 C6.04092937 18.33297433 6.04241723 20.66705225 6 23 C3.66776264 19.50164396 2.84754451 16.08595267 1.875 12.0625 C1.69324219 11.34642578 1.51148437 10.63035156 1.32421875 9.89257812 C0.47914891 6.46464446 0 3.55227969 0 0 Z " fill="#EFBED0" transform="translate(81,56)"/>
<path d="M0 0 C3.91211733 1.15585285 6.8745041 2.35534962 10 5 C9.01 5.33 8.02 5.66 7 6 C7 5.34 7 4.68 7 4 C6.01 4 5.02 4 4 4 C4 4.99 4 5.98 4 7 C4.66 7 5.32 7 6 7 C6 8.98 6 10.96 6 13 C5.67 11.68 5.34 10.36 5 9 C3.35 8.67 1.7 8.34 0 8 C0 6.68 0 5.36 0 4 C0.66 3.67 1.32 3.34 2 3 C1.34 2.67 0.68 2.34 0 2 C0 1.34 0 0.68 0 0 Z " fill="#F2A5BE" transform="translate(57,10)"/>
<path d="M0 0 C0.66 0 1.32 0 2 0 C2 1.65 2 3.3 2 5 C1.38125 5.061875 0.7625 5.12375 0.125 5.1875 C-2.23446438 5.81210579 -2.23446438 5.81210579 -3.125 8.3125 C-3.41375 9.199375 -3.7025 10.08625 -4 11 C-4.65213539 12.34050052 -5.31379969 13.67661368 -6 15 C-7.65 14.67 -9.3 14.34 -11 14 C-11 13.01 -11 12.02 -11 11 C-10.05125 10.566875 -9.1025 10.13375 -8.125 9.6875 C-4.79958063 8.20697799 -4.79958063 8.20697799 -3 5 C-2.34 5 -1.68 5 -1 5 C-0.67 3.35 -0.34 1.7 0 0 Z " fill="#EBA3BA" transform="translate(140,46)"/>
<path d="M0 0 C1.21236328 0.01353516 1.21236328 0.01353516 2.44921875 0.02734375 C3.37154297 0.04474609 3.37154297 0.04474609 4.3125 0.0625 C4.3125 1.3825 4.3125 2.7025 4.3125 4.0625 C4.9725 4.3925 5.6325 4.7225 6.3125 5.0625 C-3.09752278 4.09894647 -3.09752278 4.09894647 -7.6875 3.0625 C-7.6875 2.4025 -7.6875 1.7425 -7.6875 1.0625 C-4.80538698 0.10179566 -2.98899956 -0.04331883 0 0 Z " fill="#BD6B81" transform="translate(100.6875,22.9375)"/>
<path d="M0 0 C0.66 0.99 1.32 1.98 2 3 C1.01 3.495 1.01 3.495 0 4 C-1.27865573 7.29758582 -2.37878069 10.63810369 -3.48828125 13.99609375 C-5 17 -5 17 -7.66796875 18.41015625 C-8.82232422 18.70212891 -8.82232422 18.70212891 -10 19 C-8.89835882 16.76955389 -7.79378106 14.54064354 -6.6875 12.3125 C-6.37876953 11.68666016 -6.07003906 11.06082031 -5.75195312 10.41601562 C-3.9761894 6.84579593 -2.10467271 3.38690408 0 0 Z " fill="#E78FAA" transform="translate(73,39)"/>
<path d="M0 0 C2.31 0.33 4.62 0.66 7 1 C7.33 2.65 7.66 4.3 8 6 C3.25 7.125 3.25 7.125 1 6 C1 5.34 1 4.68 1 4 C0.34 4 -0.32 4 -1 4 C-0.67 2.68 -0.34 1.36 0 0 Z " fill="#F5DFE8" transform="translate(22,48)"/>
<path d="M0 0 C0.66 0.66 1.32 1.32 2 2 C2.99 1.34 3.98 0.68 5 0 C7.1875 0.375 7.1875 0.375 9 1 C7.576875 2.0828125 7.576875 2.0828125 6.125 3.1875 C3.32587438 5.49809898 2.01482442 7.44811452 1 11 C-1.5654594 8.4345406 -1.54046087 6.52313332 -2 3 C-1.34 3 -0.68 3 0 3 C0 2.01 0 1.02 0 0 Z " fill="#DE8AA3" transform="translate(38,31)"/>
<path d="M0 0 C2.475 0.495 2.475 0.495 5 1 C5 4.63 5 8.26 5 12 C4.01 12.495 4.01 12.495 3 13 C2.67 10.36 2.34 7.72 2 5 C1.34 5 0.68 5 0 5 C0 3.35 0 1.7 0 0 Z " fill="#D07E95" transform="translate(143,5)"/>
<path d="M0 0 C5.77807024 -0.2358396 10.51324804 0.13216954 16 2 C15 4 15 4 12.5 4.875 C7.64542481 5.04837769 4.24592939 3.19844788 0 1 C0 0.67 0 0.34 0 0 Z " fill="#CF8A9F" transform="translate(71,15)"/>
<path d="M0 0 C0.66 0 1.32 0 2 0 C2 1.32 2 2.64 2 4 C5.3 4.33 8.6 4.66 12 5 C12 5.33 12 5.66 12 6 C8.7 6 5.4 6 2 6 C2 7.65 2 9.3 2 11 C1.01 11 0.02 11 -1 11 C-1.02688151 9.35425434 -1.04634123 7.70838587 -1.0625 6.0625 C-1.07410156 5.14597656 -1.08570312 4.22945312 -1.09765625 3.28515625 C-1 1 -1 1 0 0 Z " fill="#DB8FA6" transform="translate(69,19)"/>
<path d="M0 0 C-0.08723378 1.77174819 -0.19541655 3.54247377 -0.3125 5.3125 C-0.37050781 6.29863281 -0.42851562 7.28476563 -0.48828125 8.30078125 C-1 11 -1 11 -4 14 C-4 9.71 -4 5.42 -4 1 C-1 0 -1 0 0 0 Z " fill="#D6839B" transform="translate(13,5)"/>
<path d="M0 0 C1.37562854 1.28965176 2.70766393 2.62689293 4 4 C4 4.66 4 5.32 4 6 C5.65 6.33 7.3 6.66 9 7 C8 8.5 8 8.5 6 10 C3.28153765 10.27345479 0.74322801 10.13491285 -2 10 C-2.33 9.34 -2.66 8.68 -3 8 C-1.02 7.67 0.96 7.34 3 7 C2.505 6.21625 2.01 5.4325 1.5 4.625 C0 2 0 2 0 0 Z " fill="#E8A2B8" transform="translate(19,51)"/>
<path d="M0 0 C5.34844008 0.53484401 9.35796103 2.46690767 14 5 C10.85330306 6.84652326 10.23928449 7.04617771 6.4375 6.3125 C1.80062305 4.54205607 1.80062305 4.54205607 0 2 C0 1.34 0 0.68 0 0 Z " fill="#D88299" transform="translate(102,50)"/>
<path d="M0 0 C0.66 0 1.32 0 2 0 C2 0.66 2 1.32 2 2 C3.2065625 2.433125 3.2065625 2.433125 4.4375 2.875 C7 4 7 4 8 6 C7.34 6.66 6.68 7.32 6 8 C5.34 7.34 4.68 6.68 4 6 C2.08958582 5.69047191 2.08958582 5.69047191 0 5.625 C-2.15625 5.41796875 -2.15625 5.41796875 -4 5 C-5.5 2.9375 -5.5 2.9375 -6 1 C-4.35 1.99 -2.7 2.98 -1 4 C-0.67 2.68 -0.34 1.36 0 0 Z " fill="#E79FB7" transform="translate(91,32)"/>
<path d="M0 0 C0 0.66 0 1.32 0 2 C0.99 2 1.98 2 3 2 C2.67 2.99 2.34 3.98 2 5 C2 4.34 2 3.68 2 3 C1.0925 3.309375 0.185 3.61875 -0.75 3.9375 C-4 5 -4 5 -6.3125 5.5 C-6.869375 5.665 -7.42625 5.83 -8 6 C-8.33 6.66 -8.66 7.32 -9 8 C-8.64005447 5.3364031 -8.28838998 3.41816548 -6.75 1.1875 C-4.41988723 -0.39364795 -2.75498245 -0.22337696 0 0 Z " fill="#EB9CB3" transform="translate(126,22)"/>
<path d="M0 0 C0.99 0.33 1.98 0.66 3 1 C2.360625 1.37125 1.72125 1.7425 1.0625 2.125 C-1.66721571 4.60655974 -1.56002333 6.40685722 -2 10 C-3 12.25 -3 12.25 -4 14 C-4.33 14.66 -4.66 15.32 -5 16 C-5.66 15.67 -6.32 15.34 -7 15 C-6.1377511 8.37226593 -5.35533057 4.22789256 0 0 Z " fill="#F3B8CC" transform="translate(21,3)"/>
<path d="M0 0 C7.38461538 -0.36923077 7.38461538 -0.36923077 10.5 1.5 C10.995 1.995 11.49 2.49 12 3 C11.01 3.495 11.01 3.495 10 4 C9.01 5.485 9.01 5.485 8 7 C7.67 6.34 7.34 5.68 7 5 C6.01 4.67 5.02 4.34 4 4 C4 3.34 4 2.68 4 2 C2.35 2 0.7 2 -1 2 C-0.67 1.34 -0.34 0.68 0 0 Z " fill="#E9ACBF" transform="translate(33,1)"/>
<path d="M0 0 C2 3 2 3 2 5 C5.63 5.66 9.26 6.32 13 7 C12.34 7.66 11.68 8.32 11 9 C10.01 9 9.02 9 8 9 C8 9.66 8 10.32 8 11 C4.63983107 9.87994369 3.30935087 8.62788203 1 6 C1 5.34 1 4.68 1 4 C0.34 4 -0.32 4 -1 4 C-0.67 2.68 -0.34 1.36 0 0 Z " fill="#F5BBCF" transform="translate(121,48)"/>
<path d="M0 0 C2.64 0 5.28 0 8 0 C7.34 1.65 6.68 3.3 6 5 C4.02 5 2.04 5 0 5 C0 3.35 0 1.7 0 0 Z " fill="#F4E1EA" transform="translate(127,49)"/>
<path d="M0 0 C0.66 0.33 1.32 0.66 2 1 C2.4140625 3.50390625 2.4140625 3.50390625 2.625 6.5625 C2.69976562 7.57441406 2.77453125 8.58632813 2.8515625 9.62890625 C2.90054688 10.41136719 2.94953125 11.19382812 3 12 C1.0625 11.1875 1.0625 11.1875 -1 10 C-2.31223496 6.06329512 -1.24296256 3.87511856 0 0 Z " fill="#E489A2" transform="translate(98,52)"/>
<path d="M0 0 C0 3.26756556 -0.79757497 4.99393742 -2 8 C-2.42148875 9.92792077 -2.79676438 11.8665317 -3.125 13.8125 C-3.29257813 14.78832031 -3.46015625 15.76414062 -3.6328125 16.76953125 C-3.75398437 17.50558594 -3.87515625 18.24164062 -4 19 C-4.33 19 -4.66 19 -5 19 C-5.02712153 17.083412 -5.04645097 15.1667127 -5.0625 13.25 C-5.07410156 12.18265625 -5.08570313 11.1153125 -5.09765625 10.015625 C-5.01424931 7.44001881 -4.87615525 5.40942695 -4 3 C-1.9375 1.25 -1.9375 1.25 0 0 Z " fill="#EEA7BB" transform="translate(18,4)"/>
<path d="M0 0 C2.97 0.495 2.97 0.495 6 1 C6.33 1.99 6.66 2.98 7 4 C6.01 5.485 6.01 5.485 5 7 C3.68 6.67 2.36 6.34 1 6 C0.67 4.02 0.34 2.04 0 0 Z " fill="#E79DB7" transform="translate(103,111)"/>
<path d="M0 0 C0.66 0 1.32 0 2 0 C2.19294408 4.82360189 1.75747614 8.49646738 0 13 C-1.6875 11.5625 -1.6875 11.5625 -3 9 C-2.35087445 5.85715045 -1.23221253 2.95731007 0 0 Z " fill="#EBADC2" transform="translate(71,66)"/>
<path d="M0 0 C0 1.32 0 2.64 0 4 C-1.32 4.33 -2.64 4.66 -4 5 C-4.66 4.01 -5.32 3.02 -6 2 C-6.33 2.33 -6.66 2.66 -7 3 C-8.99958364 3.04080783 -11.00045254 3.04254356 -13 3 C-8.48332093 -0.01111938 -5.3360009 -0.10067926 0 0 Z " fill="#DA8299" transform="translate(112,20)"/>
<path d="M0 0 C0.33 0 0.66 0 1 0 C1 6.6 1 13.2 1 20 C0.67 20 0.34 20 0 20 C-0.33 18.02 -0.66 16.04 -1 14 C-1.66 14.99 -2.32 15.98 -3 17 C-3 15.02 -3 13.04 -3 11 C-2.34 11 -1.68 11 -1 11 C-0.67 7.37 -0.34 3.74 0 0 Z " fill="#EFA8BE" transform="translate(152,7)"/>
<path d="M0 0 C5.61 0 11.22 0 17 0 C17.33 0.66 17.66 1.32 18 2 C13.71 2.66 9.42 3.32 5 4 C5.33 3.34 5.66 2.68 6 2 C3.03 1.505 3.03 1.505 0 1 C0 0.67 0 0.34 0 0 Z " fill="#EAA1B6" transform="translate(14,0)"/>
<path d="M0 0 C0.99 0.33 1.98 0.66 3 1 C0.64031256 3.09749995 -0.54616994 3.96905704 -3.75 4.1875 C-4.86375 4.0946875 -4.86375 4.0946875 -6 4 C-6 4.99 -6 5.98 -6 7 C-7.65 7.33 -9.3 7.66 -11 8 C-10.5 5.625 -10.5 5.625 -9 3 C-6.93491086 2.18426832 -4.96025026 1.75411397 -2.77734375 1.359375 C-0.98267397 1.16698776 -0.98267397 1.16698776 0 0 Z " fill="#E68BA4" transform="translate(48,54)"/>
<path d="M0 0 C1.41623216 -0.05447047 2.83308191 -0.09300508 4.25 -0.125 C5.03890625 -0.14820312 5.8278125 -0.17140625 6.640625 -0.1953125 C9.20731941 0.0171622 10.7916067 0.71345895 13 2 C8.03926578 3.32286246 3.08888488 3.08893197 -2 3 C-1.34 2.67 -0.68 2.34 0 2 C0 1.34 0 0.68 0 0 Z " fill="#ECADC2" transform="translate(120,0)"/>
<path d="M0 0 C0.33 1.32 0.66 2.64 1 4 C-0.45381897 4.69699552 -1.91322953 5.38233866 -3.375 6.0625 C-4.18710938 6.44535156 -4.99921875 6.82820313 -5.8359375 7.22265625 C-6.55007812 7.47917969 -7.26421875 7.73570313 -8 8 C-8.66 7.67 -9.32 7.34 -10 7 C-9.67 6.34 -9.34 5.68 -9 5 C-8.01 5 -7.02 5 -6 5 C-5.566875 4.0409375 -5.566875 4.0409375 -5.125 3.0625 C-3.72314735 0.49243681 -2.91896073 0 0 0 Z " fill="#F5CFDF" transform="translate(138,107)"/>
<path d="M0 0 C1.4540625 0.0309375 1.4540625 0.0309375 2.9375 0.0625 C2.9375 2.0625 2.9375 2.0625 1 4.0625 C0.319375 4.7225 -0.36125 5.3825 -1.0625 6.0625 C-1.3925 6.7225 -1.7225 7.3825 -2.0625 8.0625 C-3.0525 8.0625 -4.0425 8.0625 -5.0625 8.0625 C-4.046875 0.08258929 -4.046875 0.08258929 0 0 Z " fill="#F2C8D8" transform="translate(56.0625,29.9375)"/>
<path d="M0 0 C0.66 0.66 1.32 1.32 2 2 C0.02 2.33 -1.96 2.66 -4 3 C-4.33 4.32 -4.66 5.64 -5 7 C-5.99 5.02 -6.98 3.04 -8 1 C-5.23749964 -0.38125018 -3.05268901 -0.19079306 0 0 Z " fill="#E8A8BE" transform="translate(102,27)"/>
<path d="M0 0 C0.66 0 1.32 0 2 0 C2.66 2.31 3.32 4.62 4 7 C4.33 7 4.66 7 5 7 C5 9.64 5 12.28 5 15 C4.34 15 3.68 15 3 15 C1.85948394 10.01716284 0.77774134 5.05531868 0 0 Z " fill="#E28FA8" transform="translate(143,10)"/>
<path d="M0 0 C-0.99 0.66 -1.98 1.32 -3 2 C-3.33 2.99 -3.66 3.98 -4 5 C-4 4.34 -4 3.68 -4 3 C-6.31 3.33 -8.62 3.66 -11 4 C-11.33 4.99 -11.66 5.98 -12 7 C-11.67 5.35 -11.34 3.7 -11 2 C-7.17679443 0.57741188 -4.08718695 -0.24042276 0 0 Z " fill="#E7B6C4" transform="translate(14,0)"/>
<path d="M0 0 C0.66 0 1.32 0 2 0 C2.10477512 5.78591511 1.99250545 11.29309366 1 17 C0.67 17 0.34 17 0 17 C-1.33257403 5.47835991 -1.33257403 5.47835991 0 0 Z " fill="#E7B2C1" transform="translate(154,24)"/>
<path d="M0 0 C3.24290174 4.8643526 5.55811184 10.04680699 5 16 C4.731875 15.4225 4.46375 14.845 4.1875 14.25 C3.10274793 11.95871867 3.10274793 11.95871867 1.375 10.25 C-0.71544756 6.82926763 -0.19818811 3.96376211 0 0 Z " fill="#F6D8E5" transform="translate(139,91)"/>
<path d="M0 0 C1.32 0 2.64 0 4 0 C4.309375 0.94875 4.61875 1.8975 4.9375 2.875 C5.87394742 5.86080408 5.87394742 5.86080408 7 8 C4.625 7.75 4.625 7.75 2 7 C0.2058242 4.43689172 0 3.16880694 0 0 Z " fill="#DCADBD" transform="translate(6,54)"/>
<path d="M0 0 C0.33 0.66 0.66 1.32 1 2 C1.99 2 2.98 2 4 2 C4.33 2.66 4.66 3.32 5 4 C5.66 3.67 6.32 3.34 7 3 C6.67 3.99 6.34 4.98 6 6 C5.01 6 4.02 6 3 6 C3 6.99 3 7.98 3 9 C2.34 9 1.68 9 1 9 C1.33 7.68 1.66 6.36 2 5 C1.01 4.67 0.02 4.34 -1 4 C-0.67 2.68 -0.34 1.36 0 0 Z " fill="#D77D95" transform="translate(59,49)"/>
<path d="M0 0 C0.99 0.33 1.98 0.66 3 1 C0.9375 3.5 0.9375 3.5 -2 6 C-5.8125 6.3125 -5.8125 6.3125 -9 6 C-5.375 3 -5.375 3 -2 3 C-2 2.34 -2 1.68 -2 1 C-1.34 0.67 -0.68 0.34 0 0 Z " fill="#EDACC1" transform="translate(51,38)"/>
<path d="M0 0 C0.99 0 1.98 0 3 0 C2.67 1.65 2.34 3.3 2 5 C0.02 5.33 -1.96 5.66 -4 6 C-2.84826645 3.53199953 -1.95216435 1.95216435 0 0 Z " fill="#D986A0" transform="translate(55,37)"/>
<path d="M0 0 C2.375 0.1875 2.375 0.1875 5 1 C5.99 2.32 6.98 3.64 8 5 C4.04 5 0.08 5 -4 5 C-4 4.67 -4 4.34 -4 4 C-0.535 3.505 -0.535 3.505 3 3 C1.68 2.34 0.36 1.68 -1 1 C-0.67 0.67 -0.34 0.34 0 0 Z " fill="#E49CB3" transform="translate(75,32)"/>
<path d="M0 0 C-1.29009643 0.50403768 -2.58213789 1.00309926 -3.875 1.5 C-4.95394531 1.91765625 -4.95394531 1.91765625 -6.0546875 2.34375 C-8 3 -8 3 -10 3 C-10.33 1.68 -10.66 0.36 -11 -1 C-3.375 -2.25 -3.375 -2.25 0 0 Z " fill="#F6C1D1" transform="translate(114,17)"/>
<path d="M0 0 C0 0.99 0 1.98 0 3 C-0.99 3.66 -1.98 4.32 -3 5 C-3.33 5.99 -3.66 6.98 -4 8 C-6.0625 9.1875 -6.0625 9.1875 -8 10 C-7.9375 7.8125 -7.9375 7.8125 -7 5 C-4.8282781 3.06842043 -2.47398953 1.51798313 0 0 Z " fill="#F7A8C2" transform="translate(66,56)"/>
<path d="M0 0 C-0.50603992 2.16874252 -0.99983813 3.99967627 -2 6 C-3.32 6 -4.64 6 -6 6 C-5.67 4.35 -5.34 2.7 -5 1 C-2 0 -2 0 0 0 Z " fill="#F9DDE9" transform="translate(53,32)"/>
<path d="M0 0 C1.60332791 -0.08121924 3.20784026 -0.13929134 4.8125 -0.1875 C6.15248047 -0.23970703 6.15248047 -0.23970703 7.51953125 -0.29296875 C10.41647515 0.04918998 11.22555028 0.75393573 13 3 C8.17639811 3.19294408 4.50353262 2.75747614 0 1 C0 0.67 0 0.34 0 0 Z " fill="#F0D4E0" transform="translate(26,12)"/>
<path d="M0 0 C0 0.99 0 1.98 0 3 C-0.66 3 -1.32 3 -2 3 C-2 3.66 -2 4.32 -2 5 C-3.65 5.66 -5.3 6.32 -7 7 C-6.34 5.68 -5.68 4.36 -5 3 C-5.66 2.34 -6.32 1.68 -7 1 C-4.53721199 -0.231394 -2.7204945 -0.07159196 0 0 Z " fill="#E7A3B6" transform="translate(117,3)"/>
<path d="M0 0 C2.58949269 1.29474635 2.96035764 2.32663393 4 5 C4.125 7.75 4.125 7.75 4 10 C3.01 9.67 2.02 9.34 1 9 C-0.4783226 6.04335481 -0.06032783 3.25770263 0 0 Z " fill="#E8AEC1" transform="translate(99,100)"/>
<path d="M0 0 C0.95465783 2.16967689 1.14401212 3.56328793 0.3984375 5.82421875 C-0.35870385 7.5684743 -1.17609198 9.28627131 -2 11 C-2.66 11 -3.32 11 -4 11 C-3.56179109 6.44262737 -3.14958831 3.42346555 0 0 Z " fill="#DEA1B2" transform="translate(69,77)"/>
<path d="M0 0 C3.2542015 2.83430453 4.5206753 4.68607774 5 9 C3 8 1 7 -1 6 C-0.67 4.02 -0.34 2.04 0 0 Z " fill="#E49EB1" transform="translate(122,59)"/>
<path d="M0 0 C2 1.8125 2 1.8125 4 4 C4 4.99 4 5.98 4 7 C5.32 7.66 6.64 8.32 8 9 C6.35 9 4.7 9 3 9 C3 8.01 3 7.02 3 6 C2.34 6 1.68 6 1 6 C0.34 4.35 -0.32 2.7 -1 1 C-0.67 0.67 -0.34 0.34 0 0 Z " fill="#EE9AB5" transform="translate(88,50)"/>
<path d="M0 0 C-1.6875 2.5 -1.6875 2.5 -4 5 C-6.75 5.3125 -6.75 5.3125 -9 5 C-8.01 4.01 -7.02 3.02 -6 2 C-6.33 1.34 -6.66 0.68 -7 0 C-4.3333581 -1.33332095 -2.83319697 -0.67102033 0 0 Z " fill="#D58097" transform="translate(56,49)"/>
<path d="M0 0 C0.33 0.66 0.66 1.32 1 2 C-0.375 4 -0.375 4 -2 6 C-2.66 6 -3.32 6 -4 6 C-4.66 7.32 -5.32 8.64 -6 10 C-6.33 8.68 -6.66 7.36 -7 6 C-6.01 5.67 -5.02 5.34 -4 5 C-3.30062468 3.68352881 -2.63270867 2.34977849 -2 1 C-1.34 0.67 -0.68 0.34 0 0 Z " fill="#E891A8" transform="translate(63,43)"/>
<path d="M0 0 C0.99 0.66 1.98 1.32 3 2 C3 2.66 3 3.32 3 4 C1.741875 3.87625 0.48375 3.7525 -0.8125 3.625 C-1.87404297 3.52058594 -1.87404297 3.52058594 -2.95703125 3.4140625 C-5 3 -5 3 -8 1 C-2.25 -1.125 -2.25 -1.125 0 0 Z " fill="#F5BACE" transform="translate(51,16)"/>
<path d="M0 0 C1.32 0.33 2.64 0.66 4 1 C4 1.66 4 2.32 4 3 C4.99 2.67 5.98 2.34 7 2 C7.33 2.66 7.66 3.32 8 4 C7.67 4.99 7.34 5.98 7 7 C4.13302508 5.71480435 2.02392288 4.42870746 0 2 C0 1.34 0 0.68 0 0 Z " fill="#F1A4BD" transform="translate(51,90)"/>
<path d="M0 0 C0.33 0.99 0.66 1.98 1 3 C3.00016466 4.20882096 3.00016466 4.20882096 5 5 C0.91556885 6.53166168 -2.79455657 5.63081652 -7 5 C-7 4.67 -7 4.34 -7 4 C-6.030625 3.71125 -5.06125 3.4225 -4.0625 3.125 C-0.89335797 2.35785318 -0.89335797 2.35785318 0 0 Z " fill="#F2C2D2" transform="translate(141,57)"/>
<path d="M0 0 C0.125 5.75 0.125 5.75 -1 8 C-1.66 8 -2.32 8 -3 8 C-3.66 5.69 -4.32 3.38 -5 1 C-2 0 -2 0 0 0 Z " fill="#E188A5" transform="translate(121,35)"/>
<path d="M0 0 C0.66 0 1.32 0 2 0 C2 0.99 2 1.98 2 3 C3.32 3.33 4.64 3.66 6 4 C4.88625 4.309375 3.7725 4.61875 2.625 4.9375 C-0.7945155 5.82326483 -0.7945155 5.82326483 -3 7 C-2.25 2.25 -2.25 2.25 0 0 Z " fill="#D47C94" transform="translate(42,27)"/>
<path d="M0 0 C4.62 0 9.24 0 14 0 C14 1.65 14 3.3 14 5 C13.01 5.495 13.01 5.495 12 6 C11.67 4.68 11.34 3.36 11 2 C7.37 1.67 3.74 1.34 0 1 C0 0.67 0 0.34 0 0 Z " fill="#F2D3DF" transform="translate(123,4)"/>
<path d="M0 0 C0.33 0 0.66 0 1 0 C0.88648483 1.81325551 0.75887039 3.62563357 0.625 5.4375 C0.55539063 6.44683594 0.48578125 7.45617187 0.4140625 8.49609375 C0.27742188 9.32238281 0.14078125 10.14867188 0 11 C-0.99 11.495 -0.99 11.495 -2 12 C-2.28571429 3.42857143 -2.28571429 3.42857143 0 0 Z " fill="#F3A0B7" transform="translate(28,71)"/>
<path d="M0 0 C0.33 0 0.66 0 1 0 C1.33 1.98 1.66 3.96 2 6 C2.33 6 2.66 6 3 6 C3 7.98 3 9.96 3 12 C1.68 11.67 0.36 11.34 -1 11 C-0.67 7.37 -0.34 3.74 0 0 Z " fill="#EDACC2" transform="translate(151,35)"/>
<path d="M0 0 C2.62386487 3.06117568 3 3.73173127 3 8 C2.01 8 1.02 8 0 8 C0 7.34 0 6.68 0 6 C-0.99 5.67 -1.98 5.34 -3 5 C-2.01 4.67 -1.02 4.34 0 4 C0 2.68 0 1.36 0 0 Z " fill="#F5C9DA" transform="translate(111,35)"/>
<path d="M0 0 C0 3.01490557 -0.51952735 4.86864114 -1.5 7.6875 C-1.91765625 8.89986328 -1.91765625 8.89986328 -2.34375 10.13671875 C-2.5603125 10.75160156 -2.776875 11.36648437 -3 12 C-3.66 11.67 -4.32 11.34 -5 11 C-4.55123384 9.35153231 -4.09069512 7.70626545 -3.625 6.0625 C-3.36976562 5.14597656 -3.11453125 4.22945313 -2.8515625 3.28515625 C-2 1 -2 1 0 0 Z " fill="#F2A4BF" transform="translate(51,65)"/>
<path d="M0 0 C1.9375 0.3125 1.9375 0.3125 4 1 C4.33 1.99 4.66 2.98 5 4 C3.35 4.33 1.7 4.66 0 5 C-0.33 4.01 -0.66 3.02 -1 2 C-0.67 1.34 -0.34 0.68 0 0 Z " fill="#F5ADC5" transform="translate(93,59)"/>
<path d="M0 0 C0 1.98 0 3.96 0 6 C-1.98 6.99 -1.98 6.99 -4 8 C-3.74438677 5.6568787 -3.40729228 3.32156597 -3 1 C-1 0 -1 0 0 0 Z " fill="#DA9AB0" transform="translate(153,45)"/>
<path d="M0 0 C4.51617599 -0.07654536 8.59085217 -0.10228696 13 1 C13 1.33 13 1.66 13 2 C7.06 2.495 7.06 2.495 1 3 C0.67 2.01 0.34 1.02 0 0 Z " fill="#D37F95" transform="translate(47,21)"/>
<path d="M0 0 C0 0.33 0 0.66 0 1 C-0.63808594 1.12117188 -1.27617187 1.24234375 -1.93359375 1.3671875 C-3.17302734 1.61855469 -3.17302734 1.61855469 -4.4375 1.875 C-5.26121094 2.03742187 -6.08492187 2.19984375 -6.93359375 2.3671875 C-7.61550781 2.57601563 -8.29742188 2.78484375 -9 3 C-9.33 3.66 -9.66 4.32 -10 5 C-10.66 4.67 -11.32 4.34 -12 4 C-12 3.01 -12 2.02 -12 1 C-7.93631321 0.22596442 -4.13574827 -0.0984702 0 0 Z " fill="#F3BFD3" transform="translate(31,15)"/>
<path d="M0 0 C0.66 0 1.32 0 2 0 C4.29013653 3.4352048 4.17842973 4.985331 4 9 C3.731875 8.360625 3.46375 7.72125 3.1875 7.0625 C2.11332248 4.66868314 2.11332248 4.66868314 -1 4 C-0.67 2.68 -0.34 1.36 0 0 Z " fill="#D58299" transform="translate(90,80)"/>
<path d="M0 0 C0.66 0 1.32 0 2 0 C1.125 4.875 1.125 4.875 0 6 C-2.33297433 6.04092937 -4.66705225 6.04241723 -7 6 C-7 5.67 -7 5.34 -7 5 C-5.35 5 -3.7 5 -2 5 C-1.34 3.35 -0.68 1.7 0 0 Z " fill="#F7CFDC" transform="translate(135,49)"/>
<path d="M0 0 C0 2.31 0 4.62 0 7 C-0.99 7 -1.98 7 -3 7 C-3 5.68 -3 4.36 -3 3 C-3.66 3 -4.32 3 -5 3 C-5 2.34 -5 1.68 -5 1 C-2 0 -2 0 0 0 Z " fill="#EFB6C5" transform="translate(80,42)"/>
<path d="M0 0 C1.37473375 4.27694946 0.38688443 6.83934671 -1 11 C-3 8 -3 8 -2.75 5.5 C-2 3 -2 3 0 0 Z " fill="#E38FAB" transform="translate(11,16)"/>
<path d="M0 0 C6.75 0.875 6.75 0.875 9 2 C9 2.66 9 3.32 9 4 C9.66 4.33 10.32 4.66 11 5 C6.87248551 4.39301257 3.6678852 2.96189209 0 1 C0 0.67 0 0.34 0 0 Z " fill="#EEBFD0" transform="translate(37,118)"/>
<path d="M0 0 C1.32 0 2.64 0 4 0 C4.33 2.31 4.66 4.62 5 7 C4.01 7.495 4.01 7.495 3 8 C0 2.25 0 2.25 0 0 Z " fill="#E3A4B7" transform="translate(89,84)"/>
<path d="M0 0 C0.33 0 0.66 0 1 0 C0.67 3.3 0.34 6.6 0 10 C-0.99 9.67 -1.98 9.34 -3 9 C-2.25 2.25 -2.25 2.25 0 0 Z " fill="#F1C4D3" transform="translate(75,55)"/>
<path d="M0 0 C0.66 0 1.32 0 2 0 C3.625 2 3.625 2 5 4 C4.67 4.66 4.34 5.32 4 6 C3.01 6.33 2.02 6.66 1 7 C0.67 4.69 0.34 2.38 0 0 Z " fill="#BF687C" transform="translate(85,37)"/>
<path d="M0 0 C3.91211733 1.15585285 6.8745041 2.35534962 10 5 C9.01 5.33 8.02 5.66 7 6 C7 5.34 7 4.68 7 4 C6.401875 4.226875 5.80375 4.45375 5.1875 4.6875 C4.465625 4.790625 3.74375 4.89375 3 5 C1.25 3.6875 1.25 3.6875 0 2 C0 1.34 0 0.68 0 0 Z " fill="#E7B4C4" transform="translate(57,10)"/>
<path d="M0 0 C0.33 0.66 0.66 1.32 1 2 C-0.65 2.66 -2.3 3.32 -4 4 C-4 4.66 -4 5.32 -4 6 C-4.66 6 -5.32 6 -6 6 C-6.33 6.66 -6.66 7.32 -7 8 C-7 4 -7 4 -5.75 2.3125 C-3.8286446 0.87148345 -2.34906978 0.40501203 0 0 Z " fill="#F0CCD9" transform="translate(121,5)"/>
<path d="M0 0 C1.81325551 0.11351517 3.62563357 0.24112961 5.4375 0.375 C6.95150391 0.47941406 6.95150391 0.47941406 8.49609375 0.5859375 C9.73552734 0.79089844 9.73552734 0.79089844 11 1 C11.33 1.66 11.66 2.32 12 3 C7.545 3.495 7.545 3.495 3 4 C3 3.34 3 2.68 3 2 C2.01 1.34 1.02 0.68 0 0 Z " fill="#ECBDCD" transform="translate(142,0)"/>
<path d="M0 0 C2.625 -0.1875 2.625 -0.1875 5 0 C3.35 1.65 1.7 3.3 0 5 C-0.66 4.34 -1.32 3.68 -2 3 C-1.34 2.01 -0.68 1.02 0 0 Z " fill="#F39EB7" transform="translate(39,61)"/>
<path d="M0 0 C1.32 0.33 2.64 0.66 4 1 C2.02 3.97 2.02 3.97 0 7 C-0.66 6.67 -1.32 6.34 -2 6 C-1.49396008 3.83125748 -1.00016187 2.00032373 0 0 Z " fill="#C6778C" transform="translate(37,55)"/>
<path d="M0 0 C4.95 0.99 4.95 0.99 10 2 C10 2.66 10 3.32 10 4 C7.69 4 5.38 4 3 4 C3 3.34 3 2.68 3 2 C2.01 2 1.02 2 0 2 C0 1.34 0 0.68 0 0 Z " fill="#DF9CB3" transform="translate(73,17)"/>
<path d="M0 0 C2.15377564 2.62198774 3.40072174 4.64404172 4 8 C3.01 8.33 2.02 8.66 1 9 C0.67 6.03 0.34 3.06 0 0 Z " fill="#F2C2D4" transform="translate(128,68)"/>
<path d="M0 0 C0.99 0 1.98 0 3 0 C3 2.64 3 5.28 3 8 C2.34 8 1.68 8 1 8 C0.67 5.36 0.34 2.72 0 0 Z " fill="#F08FAA" transform="translate(124,69)"/>
<path d="M0 0 C0.66 0 1.32 0 2 0 C2.33 1.98 2.66 3.96 3 6 C1.35 5.67 -0.3 5.34 -2 5 C-1.125 1.125 -1.125 1.125 0 0 Z " fill="#F19BB4" transform="translate(55,50)"/>
<path d="M0 0 C1.64284201 2.95711562 2.6442194 5.62008426 3 9 C2.34 9.66 1.68 10.32 1 11 C0.30710631 7.27569643 -0.11144596 3.78916254 0 0 Z " fill="#D993A9" transform="translate(6,45)"/>
<path d="M0 0 C0.66 0 1.32 0 2 0 C1.67 0.99 1.34 1.98 1 3 C0.34 3 -0.32 3 -1 3 C-1.33 4.65 -1.66 6.3 -2 8 C-2.66 6.68 -3.32 5.36 -4 4 C-2.68 3.34 -1.36 2.68 0 2 C0 1.34 0 0.68 0 0 Z " fill="#F4BECF" transform="translate(115,6)"/>
<path d="M0 0 C0.99 0 1.98 0 3 0 C2.67 2.64 2.34 5.28 2 8 C0.23537317 4.91190305 0 3.76687864 0 0 Z " fill="#F2C6D6" transform="translate(81,56)"/>
<path d="M0 0 C1.32 0 2.64 0 4 0 C3.25 1.9375 3.25 1.9375 2 4 C-0.125 4.75 -0.125 4.75 -2 5 C-1.34 3.35 -0.68 1.7 0 0 Z " fill="#D77B93" transform="translate(95,50)"/>
<path d="M0 0 C0.99 0.495 0.99 0.495 2 1 C1.67 1.99 1.34 2.98 1 4 C0.67 2.68 0.34 1.36 0 0 Z M-2 4 C-1.34 4.33 -0.68 4.66 0 5 C-0.33 5.99 -0.66 6.98 -1 8 C-1.99 8 -2.98 8 -4 8 C-4 7.01 -4 6.02 -4 5 C-3.34 4.67 -2.68 4.34 -2 4 Z " fill="#EFACC1" transform="translate(85,48)"/>
<path d="M0 0 C2.31 0 4.62 0 7 0 C6.01 1.485 6.01 1.485 5 3 C5 2.34 5 1.68 5 1 C4.34 1 3.68 1 3 1 C2.67 1.99 2.34 2.98 2 4 C1.01 3.67 0.02 3.34 -1 3 C-0.67 2.01 -0.34 1.02 0 0 Z " fill="#CE7891" transform="translate(73,37)"/>
<path d="M0 0 C-1.0975223 2.99324263 -1.67682892 3.84610901 -4.625 5.25 C-5.40875 5.4975 -6.1925 5.745 -7 6 C-7 4 -7 4 -5.1875 1.875 C-3 0 -3 0 0 0 Z " fill="#EEAABF" transform="translate(65,37)"/>
<path d="M0 0 C0.33 0.99 0.66 1.98 1 3 C0.34 3 -0.32 3 -1 3 C-1 4.65 -1 6.3 -1 8 C-1.33 7.01 -1.66 6.02 -2 5 C-2.66 5 -3.32 5 -4 5 C-2.25 1.125 -2.25 1.125 0 0 Z " fill="#ECA9BF" transform="translate(37,31)"/>
<path d="M0 0 C-0.33 0.99 -0.66 1.98 -1 3 C-3.5625 4.1875 -3.5625 4.1875 -6 5 C-6.66 4.34 -7.32 3.68 -8 3 C-2.25 0 -2.25 0 0 0 Z " fill="#E9B7C7" transform="translate(104,8)"/>
</svg>
