<?xml version="1.0" encoding="UTF-8"?>
<svg version="1.1" xmlns="http://www.w3.org/2000/svg" width="16" height="12">
<path d="M0 0 C5.28 0 10.56 0 16 0 C16 1.98 16 3.96 16 6 C15.01 6.495 15.01 6.495 14 7 C14.33 8.32 14.66 9.64 15 11 C13.35 11.33 11.7 11.66 10 12 C9.67 10.68 9.34 9.36 9 8 C8.34 8 7.68 8 7 8 C6.67 9.32 6.34 10.64 6 12 C4.35 11.67 2.7 11.34 1 11 C1.33 9.68 1.66 8.36 2 7 C1.34 6.67 0.68 6.34 0 6 C0 4.02 0 2.04 0 0 Z " fill="#E28FA7" transform="translate(0,0)"/>
<path d="M0 0 C1.32 0 2.64 0 4 0 C4 1.98 4 3.96 4 6 C3.01 6.495 3.01 6.495 2 7 C2.33 8.32 2.66 9.64 3 11 C1.35 11.33 -0.3 11.66 -2 12 C-2.33 10.68 -2.66 9.36 -3 8 C-3.99 8 -4.98 8 -6 8 C-5 5 -5 5 -2 3 C-1.34 2.01 -0.68 1.02 0 0 Z " fill="#EDACC1" transform="translate(12,0)"/>
<path d="M0 0 C1.65 0 3.3 0 5 0 C5.33 1.32 5.66 2.64 6 4 C3 6 3 6 0 6 C0 4.02 0 2.04 0 0 Z " fill="#ECABC0" transform="translate(0,0)"/>
<path d="M0 0 C0.99 0.33 1.98 0.66 3 1 C3.6875 3.0625 3.6875 3.0625 4 5 C2.35 5.33 0.7 5.66 -1 6 C-0.67 4.02 -0.34 2.04 0 0 Z " fill="#F3AEC6" transform="translate(11,6)"/>
<path d="M0 0 C2 3 2 3 2 6 C0.35 5.67 -1.3 5.34 -3 5 C-2.625 3.0625 -2.625 3.0625 -2 1 C-1.34 0.67 -0.68 0.34 0 0 Z " fill="#F3AEC6" transform="translate(4,6)"/>
<path d="M0 0 C1.98 0 3.96 0 6 0 C4.25 3.875 4.25 3.875 2 5 C2 4.34 2 3.68 2 3 C1.01 3 0.02 3 -1 3 C-0.67 2.01 -0.34 1.02 0 0 Z " fill="#ED9DB6" transform="translate(7,5)"/>
</svg>
